<?xml version="1.0" standalone="no"?>
<!DOCTYPE svg PUBLIC "-//W3C//DTD SVG 20010904//EN"
 "http://www.w3.org/TR/2001/REC-SVG-20010904/DTD/svg10.dtd">
<svg version="1.0" xmlns="http://www.w3.org/2000/svg"
 width="4000.000000pt" height="4000.000000pt" viewBox="0 0 4000.000000 4000.000000"
 preserveAspectRatio="xMidYMid meet">
<metadata>
Created by potrace 1.11, written by Peter Selinger 2001-2013
</metadata>
<g transform="translate(0.000000,4000.000000) scale(0.100000,-0.100000)"
fill="#000000" stroke="none">
<path d="M15221 26037 c-8 -10 -11 -489 -13 -1708 l-3 -1694 -23 -60 c-57
-151 -168 -247 -317 -274 -74 -14 -302 -15 -310 -1 -4 6 -107 10 -275 10
l-269 0 -3 578 c-4 564 -4 579 -26 650 -45 146 -105 232 -196 280 -48 26 -59
27 -191 27 -137 0 -141 -1 -194 -30 -111 -61 -193 -174 -220 -303 -7 -35 -11
-247 -11 -627 l0 -575 -1045 0 -1045 0 0 424 c0 485 -7 557 -80 780 -66 204
-211 427 -400 616 -209 210 -412 322 -693 382 -139 29 -456 32 -592 5 -205
-41 -251 -58 -420 -160 -265 -159 -474 -362 -607 -590 -199 -341 -243 -817
-112 -1216 219 -665 669 -1028 1354 -1090 63 -6 211 -11 328 -11 l213 0 -44
-57 c-61 -79 -208 -219 -289 -277 -92 -65 -239 -138 -350 -175 -249 -81 -335
-91 -848 -100 -456 -8 -470 -10 -563 -64 -61 -36 -114 -98 -151 -176 l-31 -66
-3 -273 -3 -273 803 4 803 3 105 26 c387 96 770 325 994 592 240 287 378 513
448 733 l33 103 2100 2 2100 3 75 22 c228 67 428 214 590 433 107 145 159 270
185 440 22 142 22 3261 0 3363 -38 180 -125 284 -270 322 -80 20 -517 22 -534
2z m-5448 -2376 c88 -23 143 -49 210 -100 116 -87 211 -261 261 -478 40 -175
-58 -436 -230 -608 -117 -117 -253 -162 -461 -153 -99 5 -104 6 -215 60 -193
96 -306 213 -365 378 -22 62 -27 97 -31 205 -4 125 -3 134 27 222 91 272 243
432 455 478 94 21 259 19 349 -4z"/>
<path d="M18300 24534 c-157 -20 -329 -63 -405 -102 -341 -172 -630 -447 -775
-737 -130 -262 -174 -543 -136 -868 28 -237 135 -518 283 -741 126 -190 339
-376 539 -471 251 -119 507 -165 922 -165 l213 0 -48 -61 c-70 -89 -220 -229
-310 -289 -136 -90 -297 -159 -480 -205 -152 -38 -264 -47 -693 -54 -456 -8
-470 -10 -563 -64 -61 -36 -114 -98 -151 -176 l-31 -66 -3 -272 -3 -273 759 0
c716 0 767 1 878 20 295 51 606 199 884 423 263 211 576 681 650 975 l11 42
3208 0 c2797 0 3210 2 3221 15 9 10 11 82 8 277 -3 259 -3 264 -29 318 -46 98
-147 176 -278 214 -49 14 -313 16 -2767 16 -1798 0 -2715 3 -2719 10 -4 6
-105 10 -271 10 l-264 0 0 424 c0 488 -8 560 -82 783 -116 346 -439 722 -757
883 -85 42 -221 88 -334 111 -100 20 -388 34 -477 23z m323 -869 c253 -53 413
-244 491 -582 21 -92 1 -231 -47 -337 -70 -151 -175 -284 -275 -347 -91 -57
-162 -74 -322 -74 l-146 0 -104 51 c-288 141 -410 323 -410 615 0 89 5 123 26
191 85 269 243 435 459 483 81 18 244 18 328 0z"/>
<path d="M27281 24339 c-78 -39 -159 -113 -194 -176 -59 -109 -57 -75 -57
-1178 0 -617 -4 -1045 -10 -1100 -27 -240 -104 -403 -274 -581 -165 -174 -297
-258 -523 -334 -268 -89 -515 -120 -1018 -129 l-370 -6 -56 -28 c-99 -48 -178
-157 -213 -294 -20 -78 -23 -502 -4 -521 16 -16 1386 -17 1539 -1 422 43 804
232 1134 564 251 250 429 523 519 792 l33 98 2084 5 2084 5 3 194 c3 236 -11
332 -63 437 -42 86 -102 143 -184 176 l-56 23 -1877 3 -1878 2 0 1034 c0 934
-2 1034 -16 1040 -9 3 -134 6 -278 6 l-263 0 -62 -31z"/>
<path d="M11824 21116 c-147 -34 -268 -127 -333 -257 -166 -331 44 -704 410
-726 298 -18 531 198 531 492 0 185 -85 342 -235 429 -109 64 -257 88 -373 62z"/>
<path d="M12920 21120 c-111 -19 -243 -94 -301 -171 -70 -92 -109 -208 -109
-324 0 -141 46 -253 144 -350 157 -157 389 -189 598 -84 187 94 292 324 247
541 -53 259 -314 434 -579 388z"/>
<path d="M29143 21115 c-202 -44 -340 -188 -381 -397 -41 -209 61 -428 244
-525 343 -182 743 50 744 432 0 243 -159 440 -395 490 -85 18 -130 18 -212 0z"/>
<path d="M30225 21118 c-88 -16 -206 -81 -263 -143 -55 -60 -104 -152 -121
-225 -16 -68 -13 -199 5 -261 91 -310 436 -452 725 -298 125 67 228 218 248
364 49 346 -249 628 -594 563z"/>
<path d="M31290 21114 c-193 -42 -339 -188 -379 -382 -64 -311 170 -602 484
-602 238 0 430 148 490 377 43 166 -8 347 -134 474 -74 74 -146 113 -249 135
-82 17 -128 17 -212 -2z"/>
<path d="M27088 19045 c-87 -28 -128 -125 -98 -235 36 -134 243 -176 354 -72
93 87 84 242 -16 293 -55 29 -173 35 -240 14z"/>
<path d="M17828 18995 c-147 -47 -143 -265 6 -342 17 -9 57 -18 91 -20 52 -4
67 -1 115 24 135 71 149 268 23 329 -51 24 -173 28 -235 9z"/>
<path d="M23928 17952 l-3 -1028 -38 -76 c-61 -125 -170 -210 -309 -243 -90
-21 -557 -21 -647 0 -143 34 -266 130 -324 252 l-32 68 -3 383 -3 382 -145 0
-145 0 3 -387 c4 -367 6 -392 27 -463 77 -255 260 -447 501 -526 78 -25 687
-33 807 -11 200 38 348 138 461 310 90 139 152 351 152 519 l0 60 25 -31 c34
-39 79 -67 151 -91 54 -18 88 -20 399 -20 417 0 448 6 556 107 59 55 102 120
131 199 20 55 22 81 26 347 l4 287 -145 0 -146 0 -3 -257 c-3 -281 -6 -297
-64 -342 -49 -39 -92 -43 -418 -39 -257 4 -320 7 -362 21 -61 20 -110 52 -138
90 -21 28 -21 35 -24 773 l-2 744 -145 0 -145 0 -2 -1028z"/>
<path d="M20123 18960 c-50 -16 -91 -63 -99 -115 -10 -71 2 -112 49 -159 135
-135 362 -45 345 135 -10 95 -68 141 -187 145 -42 2 -90 -1 -108 -6z"/>
<path d="M25862 18153 l3 -778 24 -59 c58 -144 199 -228 431 -256 47 -5 300
-10 565 -10 394 0 491 3 538 15 167 43 303 167 349 318 21 70 21 76 9 320 -17
338 -35 428 -110 544 -184 284 -630 340 -851 107 -113 -119 -156 -301 -115
-482 27 -117 94 -206 192 -256 35 -18 172 -32 417 -42 l158 -7 -5 -50 c-8 -61
-34 -114 -71 -141 -27 -20 -41 -21 -484 -24 -454 -3 -627 5 -681 31 -15 7 -37
33 -51 62 l-25 50 -3 718 -3 717 -145 0 -145 0 3 -777z m1434 19 c82 -42 135
-135 150 -262 l7 -62 -195 3 c-209 4 -228 9 -264 64 -21 32 -30 133 -15 177
14 44 56 83 101 97 55 16 168 7 216 -17z"/>
<path d="M19849 18531 c-71 -23 -109 -76 -109 -153 0 -114 116 -203 242 -184
57 9 131 69 148 122 16 47 7 119 -17 153 -35 46 -79 64 -162 67 -42 2 -88 0
-102 -5z"/>
<path d="M20415 18526 c-132 -49 -126 -239 10 -310 94 -49 210 -24 263 57 22
33 27 52 27 103 0 71 -19 105 -75 138 -44 26 -169 32 -225 12z"/>
<path d="M10751 18234 c-187 -40 -309 -165 -362 -373 -13 -50 -23 -138 -29
-257 -5 -100 -12 -188 -15 -197 -9 -21 -48 -36 -122 -47 -142 -20 -292 38
-329 126 -11 25 -14 92 -14 269 l0 235 -145 0 -145 0 0 -507 c0 -299 -5 -526
-10 -551 -37 -158 -184 -295 -358 -331 -84 -17 -552 -14 -631 4 -143 34 -266
130 -324 252 l-32 68 -3 383 -3 382 -145 0 -145 0 3 -387 c4 -365 6 -392 26
-461 83 -276 303 -487 559 -538 116 -22 729 -16 813 9 90 27 211 92 273 147
143 129 252 356 271 567 4 37 9 87 12 111 l5 42 24 -28 c13 -16 44 -40 69 -53
26 -13 46 -30 46 -36 0 -30 344 2 461 42 46 16 46 16 95 -14 154 -96 376 -106
536 -25 112 57 212 192 254 345 28 100 26 329 -4 434 -61 213 -205 362 -381
395 -73 14 -172 11 -250 -6z m224 -295 c59 -15 117 -67 146 -131 21 -47 23
-68 23 -178 0 -110 -2 -131 -23 -178 -53 -117 -174 -167 -319 -130 -64 16
-133 85 -153 153 -20 70 -17 256 5 314 49 132 170 188 321 150z"/>
<path d="M16300 18234 c-252 -67 -461 -309 -661 -769 l-48 -110 -58 2 c-84 3
-158 44 -198 107 l-30 49 -3 239 -3 238 -144 0 -144 0 -3 -252 c-3 -239 -4
-255 -25 -294 -12 -23 -39 -53 -60 -65 l-38 -24 -764 -3 -764 -2 7 -63 c3 -34
9 -101 12 -149 l7 -88 194 0 c319 0 433 -36 433 -135 0 -144 -104 -271 -255
-310 -83 -21 -558 -21 -660 0 -134 28 -249 105 -308 206 -52 89 -57 132 -57
521 l0 358 -146 0 -146 0 5 -357 c5 -397 10 -443 72 -586 51 -119 93 -183 171
-262 76 -77 182 -140 289 -171 88 -25 685 -33 806 -10 152 29 307 122 395 239
95 126 130 243 120 405 l-7 102 298 0 c324 0 358 4 454 56 29 16 87 63 128
103 42 42 76 70 79 63 9 -29 85 -113 127 -142 25 -17 71 -41 103 -53 l57 -22
990 0 c1101 0 1141 2 1322 66 95 34 280 124 438 214 55 31 104 57 109 58 4 1
17 -33 27 -76 30 -126 61 -166 159 -211 93 -43 229 -58 478 -54 l219 3 84 42
c53 26 110 65 150 101 l64 60 85 -82 c115 -109 212 -155 332 -156 101 0 225
60 317 154 l44 45 60 -55 c169 -156 420 -190 584 -78 60 41 94 83 135 164 48
96 58 180 58 476 l0 264 -145 0 -145 0 0 -272 c0 -251 -2 -275 -20 -313 -39
-81 -163 -116 -284 -81 -72 21 -145 89 -164 152 -8 28 -12 121 -12 278 l0 236
-145 0 -145 0 0 -272 c0 -256 -1 -274 -21 -315 -31 -65 -81 -88 -189 -88 -68
0 -93 5 -126 22 -54 29 -110 93 -123 140 -6 22 -11 139 -11 276 l0 237 -144 0
-145 0 -3 -252 c-3 -287 -8 -308 -81 -356 -40 -27 -42 -27 -255 -30 -121 -2
-253 1 -301 8 -106 13 -185 49 -199 88 -9 27 -8 28 127 103 l136 76 -1 90 c-3
203 -98 376 -251 456 -133 70 -138 70 -641 74 l-453 4 5 -33 c9 -56 36 -248
36 -258 0 -5 170 -10 394 -12 l393 -3 68 -35 c50 -25 78 -48 102 -81 l33 -46
-213 -119 c-342 -192 -426 -231 -552 -259 -160 -35 -270 -45 -554 -52 l-254
-6 6 24 c75 298 28 558 -129 715 -137 138 -317 193 -484 148z m251 -307 c78
-53 104 -126 104 -297 0 -119 -1 -128 -30 -185 -48 -96 -43 -95 -412 -95 -172
0 -313 2 -313 4 0 10 100 181 151 257 83 124 161 212 232 263 108 77 204 96
268 53z"/>
<path d="M28625 18244 c-50 -8 -137 -35 -175 -54 -90 -46 -173 -173 -207 -317
-28 -120 -26 -364 4 -458 75 -239 254 -343 621 -361 152 -8 143 0 117 -113
-21 -86 -58 -151 -119 -209 -70 -66 -129 -98 -221 -122 -67 -17 -111 -20 -307
-20 l-230 0 6 -37 c3 -21 10 -76 16 -123 6 -47 13 -97 16 -112 l6 -28 228 0
c248 0 333 10 440 53 201 82 363 248 434 446 l31 86 0 400 c-1 425 -8 504 -55
658 -42 136 -155 253 -283 293 -51 16 -259 27 -322 18z m218 -305 c50 -14 106
-64 131 -119 19 -40 21 -68 24 -257 l4 -213 -64 0 c-95 0 -228 19 -273 39
-102 45 -141 133 -132 291 7 119 20 163 60 206 53 57 156 79 250 53z"/>
<path d="M8740 18231 c-97 -32 -136 -91 -127 -192 10 -110 72 -167 193 -177
74 -6 123 9 171 51 100 88 95 245 -9 298 -46 24 -180 36 -228 20z"/>
<path d="M30448 17458 l-3 -533 -32 -68 c-39 -83 -124 -170 -203 -209 -103
-51 -153 -58 -418 -58 l-244 0 6 -27 c3 -16 13 -73 21 -128 8 -55 18 -110 20
-122 l5 -23 234 0 c324 0 421 21 572 122 123 82 227 224 286 390 31 89 58 220
58 287 0 25 3 56 6 68 6 21 7 21 41 -12 19 -18 53 -42 76 -53 85 -40 136 -44
507 -40 l355 3 57 27 c105 49 195 152 240 274 20 55 22 81 26 347 l4 287 -146
0 -145 0 -3 -257 c-3 -238 -5 -261 -24 -297 -12 -25 -35 -48 -60 -60 -37 -20
-55 -21 -384 -21 -384 0 -419 5 -495 68 -62 50 -65 68 -65 332 l0 235 -145 0
-144 0 -3 -532z"/>
<path d="M31152 16699 c-65 -33 -97 -87 -97 -165 0 -71 19 -105 76 -139 52
-30 200 -29 250 3 98 61 91 234 -12 292 -62 34 -160 38 -217 9z"/>
<path d="M31722 16699 c-65 -33 -97 -87 -97 -165 0 -71 19 -105 76 -139 52
-30 200 -29 250 3 98 61 91 234 -12 292 -62 34 -160 38 -217 9z"/>
<path d="M24599 16631 c-75 -24 -116 -92 -107 -175 10 -86 80 -144 188 -153
72 -7 135 19 176 73 25 32 29 46 29 100 0 71 -19 105 -75 138 -36 22 -165 32
-211 17z"/>
<path d="M25179 16631 c-75 -24 -116 -92 -107 -175 10 -86 80 -144 188 -153
72 -7 135 19 176 73 25 32 29 46 29 100 0 71 -19 105 -75 138 -36 22 -165 32
-211 17z"/>
<path d="M31425 16278 c-73 -25 -111 -97 -102 -191 5 -55 29 -93 78 -122 52
-30 200 -29 250 3 61 37 86 132 55 205 -17 43 -76 93 -123 106 -47 13 -118 13
-158 -1z"/>
</g>
</svg>
