<?xml version="1.0" encoding="utf-8"?>
<!-- Generator: Adobe Illustrator 18.0.0, SVG Export Plug-In . SVG Version: 6.00 Build 0)  -->
<!DOCTYPE svg PUBLIC "-//W3C//DTD SVG 1.1//EN" "http://www.w3.org/Graphics/SVG/1.1/DTD/svg11.dtd">
<svg version="1.1" xmlns="http://www.w3.org/2000/svg" xmlns:xlink="http://www.w3.org/1999/xlink" x="0px" y="0px"
	 viewBox="0 0 54.4 54.4" enable-background="new 0 0 54.4 54.4" xml:space="preserve">
<g id="_x32_9">
	<rect x="-54.4" y="-173.8" fill="#FFFFFF" width="800" height="797.7"/>
	<path fill="#727270" d="M27.1-106c-15,0-27.2,12.2-27.2,27.2c0,15,12.2,27.2,27.2,27.2c15.1,0,27.3-12.2,27.3-27.2
		C54.4-93.8,42.2-106,27.1-106L27.1-106z M27.1-53.8L27.1-53.8c-13.7,0-25-11.2-25-25c0-13.8,11.2-25.1,25-25.1
		c13.9,0,25.1,11.2,25.1,25.1C52.2-65,41-53.8,27.1-53.8L27.1-53.8z M14.4-85.5L14.4-85.5c0-2.3,1.9-4.2,4.2-4.2
		c2.3,0,4.2,1.9,4.2,4.2c0,2.3-1.9,4.1-4.2,4.1C16.3-81.4,14.4-83.2,14.4-85.5L14.4-85.5z M32.4-85.5L32.4-85.5
		c0-2.3,1.8-4.2,4.1-4.2c2.3,0,4.2,1.9,4.2,4.2c0,2.3-1.9,4.1-4.2,4.1C34.2-81.4,32.4-83.2,32.4-85.5L32.4-85.5z M42.1-74.7
		L42.1-74.7c-1.8,6.3-7.6,10.8-14.4,10.8c-6.8,0-12.6-4.6-14.4-10.8c3.1,4.6,8.4,7.5,14.4,7.5C33.7-67.1,39-70,42.1-74.7L42.1-74.7z
		"/>
	<path fill="#727270" d="M239.3,530.1c-15,0-27.2,12.2-27.2,27.2c0,15,12.2,27.2,27.2,27.2c15,0,27.2-12.2,27.2-27.2
		C266.5,542.2,254.4,530.1,239.3,530.1L239.3,530.1z M239.3,582.3L239.3,582.3c-13.8,0-25.1-11.2-25.1-25.1
		c0-13.7,11.2-25.1,25.1-25.1c13.9,0,25.1,11.3,25.1,25.1C264.4,571.2,253.2,582.3,239.3,582.3L239.3,582.3z M226.6,550.6
		L226.6,550.6c0-2.3,1.9-4.1,4.1-4.1c2.3,0,4.2,1.8,4.2,4.1c0,2.3-1.9,4.2-4.2,4.2C228.5,554.8,226.6,552.9,226.6,550.6L226.6,550.6
		z M244.5,550.6L244.5,550.6c0-2.3,1.9-4.1,4.2-4.1c2.3,0,4.2,1.8,4.2,4.1c0,2.3-1.9,4.2-4.2,4.2
		C246.4,554.8,244.5,552.9,244.5,550.6L244.5,550.6z M225.6,562.1L225.6,562.1l28.7,0.1c-1.8,6.2-7.5,10.8-14.4,10.8
		C233.1,572.9,227.4,568.3,225.6,562.1L225.6,562.1z"/>
	<path fill="#727270" d="M133.3,0c-15,0-27.1,12.2-27.1,27.2c0,15,12.2,27.2,27.1,27.2c15,0,27.2-12.2,27.2-27.2
		C160.5,12.2,148.3,0,133.3,0L133.3,0z M133.3,52.3L133.3,52.3c-13.8,0-25-11.2-25-25.1c0-13.8,11.2-25.1,25-25.1
		c13.9,0,25.1,11.2,25.1,25.1C158.3,41.1,147.1,52.3,133.3,52.3L133.3,52.3z M120.5,20.5L120.5,20.5c0-2.3,1.9-4.1,4.1-4.1
		c2.4,0,4.2,1.8,4.2,4.1c0,2.3-1.8,4.1-4.2,4.1C122.4,24.6,120.5,22.8,120.5,20.5L120.5,20.5z M138.5,20.5L138.5,20.5
		c0-2.3,1.8-4.1,4.2-4.1c2.3,0,4.1,1.8,4.1,4.1c0,2.3-1.8,4.1-4.1,4.1C140.4,24.6,138.5,22.8,138.5,20.5L138.5,20.5z M148.3,31.4
		L148.3,31.4c-1.8,6.2-7.6,10.7-14.4,10.7c-6.9,0-12.6-4.5-14.4-10.8c3.1,4.5,8.4,7.6,14.4,7.6C139.9,38.9,145.2,36,148.3,31.4
		L148.3,31.4z"/>
	<path fill="#727270" d="M133.3-106c-15,0-27.1,12.2-27.1,27.2c0,15,12.2,27.2,27.1,27.2c15,0,27.2-12.2,27.2-27.2
		C160.5-93.8,148.3-106,133.3-106L133.3-106z M133.3-53.7L133.3-53.7c-13.8,0-25.1-11.2-25.1-25.1c0-13.9,11.2-25.1,25.1-25.1
		c13.9,0,25.1,11.2,25.1,25.1C158.3-65,147.1-53.7,133.3-53.7L133.3-53.7z M120.5-85.6L120.5-85.6c0-2.2,1.9-4.1,4.1-4.1
		c2.3,0,4.2,1.9,4.2,4.1c0,2.3-1.9,4.2-4.2,4.2C122.4-81.4,120.5-83.3,120.5-85.6L120.5-85.6z M148.2-74.6L148.2-74.6
		c-1.8,6.1-7.5,10.8-14.3,10.7c-6.9,0-12.6-4.5-14.4-10.7c3.1,4.5,8.4,7.6,14.4,7.6C139.9-67.1,145.2-70.1,148.2-74.6L148.2-74.6z
		 M146.6-83.9L146.6-83.9h-9.2v-3.2h9.2V-83.9z"/>
	<path fill="#727270" d="M557.9-106c-15,0-27.1,12.2-27.1,27.2c0,15,12.2,27.2,27.1,27.2c15.1,0,27.3-12.2,27.3-27.2
		C585.2-93.8,573-106,557.9-106L557.9-106z M557.9-53.7L557.9-53.7c-13.7,0-25-11.2-25-25.1c0-13.8,11.2-25.1,25-25.1
		c13.9,0,25.1,11.2,25.1,25.1C583-65,571.8-53.7,557.9-53.7L557.9-53.7z M545.3-85.5L545.3-85.5c0-2.3,1.8-4.2,4.1-4.2
		c2.3,0,4.1,1.9,4.1,4.2c0,2.2-1.8,4.1-4.1,4.1C547.1-81.4,545.3-83.3,545.3-85.5L545.3-85.5z M563.2-85.5L563.2-85.5
		c0-2.3,1.8-4.2,4.2-4.2c2.3,0,4.2,1.9,4.2,4.2c0,2.2-1.9,4.1-4.2,4.1C565-81.4,563.2-83.3,563.2-85.5L563.2-85.5z M572.9-74.6
		L572.9-74.6c-1.8,6.2-7.6,10.8-14.4,10.8c-6.8,0-12.6-4.6-14.4-10.8c3.1,4.5,8.4-1.2,14.3-1.1C564.5-75.7,569.8-70,572.9-74.6
		L572.9-74.6z"/>
	<path fill="#727270" d="M664.1-106c-15,0-27.2,12.2-27.2,27.2c0,15,12.2,27.2,27.2,27.2c15,0,27.2-12.2,27.2-27.2
		C691.3-93.8,679.2-106,664.1-106L664.1-106z M664.1-53.7L664.1-53.7c-13.8,0-25.1-11.2-25.1-25.1c0-13.9,11.2-25.1,25.1-25.1
		c13.8,0,25.1,11.2,25.1,25.1C689.2-65,678-53.7,664.1-53.7L664.1-53.7z M650.4-74L650.4-74h28.8c-1.9,6.3-7.6,10.7-14.4,10.7
		C657.9-63.2,652.2-67.7,650.4-74L650.4-74z M669.3-83.4L669.3-83.4l-1.8-1.8l5.1-5.1l5.1,5.1l-1.8,1.8l-3.3-3.4L669.3-83.4z
		 M653.8-83.4L653.8-83.4l-1.7-1.8l5-5.1h0.1l5,5.1l-1.8,1.8l-3.2-3.4L653.8-83.4z"/>
	<path fill="#727270" d="M27.1,0C12.1,0,0,12.2,0,27.2c0,15,12.2,27.2,27.1,27.2c15.1,0,27.2-12.2,27.2-27.2
		C54.3,12.2,42.2,0,27.1,0L27.1,0z M27.1,52.3L27.1,52.3c-13.8,0-25-11.2-25-25.1c0-13.7,11.2-25.1,25-25.1
		c13.9,0,25.1,11.3,25.1,25.1C52.2,41.1,41,52.3,27.1,52.3L27.1,52.3z M14.4,20.5L14.4,20.5c0-2.3,1.9-4.1,4.1-4.1
		c2.4,0,4.2,1.8,4.2,4.1c0,2.3-1.8,4.1-4.2,4.1C16.3,24.6,14.4,22.8,14.4,20.5L14.4,20.5z M32.4,20.5L32.4,20.5
		c0-2.3,1.8-4.1,4.2-4.1c2.3,0,4.1,1.8,4.1,4.1c0,2.3-1.8,4.1-4.1,4.1C34.2,24.6,32.4,22.8,32.4,20.5L32.4,20.5z M41.8,42.7
		L41.8,42.7c-3.2-4.5-8.5-7.5-14.4-7.5c-6,0-11.2,3-14.5,7.6C14.9,36.5,20.6,32,27.4,32C34.2,31.9,39.9,36.5,41.8,42.7L41.8,42.7z"
		/>
	<path fill="#727270" d="M345.6,318.1c-15,0-27.2,12.2-27.2,27.2c0,15,12.2,27.2,27.2,27.2c15,0,27.3-12.2,27.3-27.2
		C372.9,330.2,360.6,318.1,345.6,318.1L345.6,318.1z M345.6,370.3L345.6,370.3c-13.8,0-25-11.2-25-25.1c0-13.9,11.2-25.1,25-25.1
		c13.9,0,25,11.2,25,25.1C370.6,359.1,359.5,370.3,345.6,370.3L345.6,370.3z M337,342.7L337,342.7c-2.3,0-4.2-1.9-4.2-4.1
		c0-2.3,1.9-4.2,4.2-4.2c2.4,0,4.2,1.9,4.2,4.2C341.2,340.8,339.4,342.7,337,342.7L337,342.7z M359.2,338.6L359.2,338.6
		c0,2.2-1.9,4.1-4.1,4.1c-2.4,0-4.2-1.9-4.2-4.1c0-2.3,1.8-4.2,4.2-4.2C357.3,334.4,359.2,336.3,359.2,338.6L359.2,338.6z
		 M355.7,357.3L355.7,357.3c0,5.1-4.2,9.3-9.3,9.3c-5.2,0-9.4-4.2-9.4-9.3c0-5.2,4.2-9.3,9.4-9.3
		C351.4,347.9,355.7,352.1,355.7,357.3L355.7,357.3z"/>
	<path fill="#727270" d="M451.8,318.1c-15,0-27.2,12.2-27.2,27.1c0,15.1,12.2,27.3,27.2,27.3c15,0,27.2-12.2,27.2-27.3
		C479,330.2,466.8,318.1,451.8,318.1L451.8,318.1z M451.8,370.3L451.8,370.3c-13.9,0-25.1-11.2-25.1-25.1c0-13.8,11.2-25,25.1-25
		c13.8,0,25,11.2,25,25C476.8,359.2,465.6,370.3,451.8,370.3L451.8,370.3z M439,338.5L439,338.5c0-2.2,1.8-4.1,4.1-4.1
		c2.4,0,4.2,1.9,4.2,4.1c0,2.3-1.8,4.2-4.2,4.2C440.8,342.7,439,340.8,439,338.5L439,338.5z M457,338.5L457,338.5
		c0-2.2,1.9-4.1,4.2-4.1c2.2,0,4.1,1.9,4.1,4.1c0,2.3-1.9,4.2-4.1,4.2C458.9,342.7,457,340.8,457,338.5L457,338.5z M466.8,358.6
		L466.8,358.6H438c1.8-6.3,7.5-10.7,14.4-10.8C459.3,347.8,465,352.3,466.8,358.6L466.8,358.6z"/>
	<path fill="#727270" d="M557.9,318.1c-15,0-27.1,12.2-27.1,27.2c0,15,12.2,27.2,27.1,27.2c15,0,27.3-12.2,27.3-27.2
		C585.2,330.2,572.9,318.1,557.9,318.1L557.9,318.1z M557.9,370.3L557.9,370.3c-13.8,0-25-11.2-25-25.1c0-13.8,11.2-25.1,25-25.1
		c13.9,0,25.1,11.2,25.1,25.1C583,359.2,571.8,370.3,557.9,370.3L557.9,370.3z M549.4,342.7L549.4,342.7c-2.4,0-4.2-1.9-4.2-4.1
		c0-2.3,1.8-4.2,4.2-4.2c2.3,0,4.1,1.9,4.1,4.2C553.5,340.8,551.7,342.7,549.4,342.7L549.4,342.7z M571.5,338.6L571.5,338.6
		c0,2.2-1.9,4.1-4.2,4.1c-2.3,0-4.1-1.9-4.1-4.1c0-2.3,1.8-4.2,4.1-4.2C569.6,334.4,571.5,336.3,571.5,338.6L571.5,338.6z
		 M566.4,351.8L566.4,351.8l-5.7,4.2l5.5,4.5l-1.6,1.9l-6-4.9l-6.3,4.6l-1.5-2l5.8-4.2l-5.5-4.5l1.5-1.9l6.1,4.9l6.3-4.6
		L566.4,351.8z"/>
	<path fill="#727270" d="M345.7,530.1c-15,0-27.2,12.2-27.2,27.2c0,15,12.2,27.2,27.2,27.2c15,0,27.2-12.2,27.2-27.2
		C372.9,542.2,360.7,530.1,345.7,530.1L345.7,530.1z M345.7,582.3L345.7,582.3c-13.8,0-25.1-11.2-25.1-25.1
		c0-13.8,11.2-25.1,25.1-25.1c13.8,0,25.1,11.2,25.1,25.1C370.7,571.2,359.5,582.3,345.7,582.3L345.7,582.3z M331.3,563L331.3,563
		H360c-1.9,6.3-7.7,10.8-14.5,10.8C338.8,573.8,333.1,569.2,331.3,563L331.3,563z M334.3,548.7L334.3,548.7l-3.9-2.7l4.6,0.2
		l1.3-4.5l1.2,4.4l4.8-0.1l-3.9,2.5l1.6,4.5l-3.6-2.9l-3.9,2.9L334.3,548.7z M351.9,548.7L351.9,548.7l-4-2.7l4.6,0.2l1.4-4.5
		l1.2,4.4l4.8-0.1l-3.9,2.5l1.6,4.5l-3.6-2.9l-3.8,2.9L351.9,548.7z"/>
	<path fill="#727270" d="M664.1,318.1c-15,0-27.2,12.2-27.2,27.2c0,15,12.2,27.2,27.2,27.2c15,0,27.2-12.2,27.2-27.2
		C691.3,330.2,679.1,318.1,664.1,318.1L664.1,318.1z M664.1,370.3L664.1,370.3c-13.8,0-25.1-11.2-25.1-25.1
		c0-13.8,11.2-25.1,25.1-25.1c13.8,0,25.1,11.2,25.1,25.1C689.2,359.2,678,370.3,664.1,370.3L664.1,370.3z M655.5,342.7L655.5,342.7
		c-2.3,0-4.2-1.9-4.2-4.1c0-2.3,1.9-4.2,4.2-4.2c2.3,0,4.2,1.9,4.2,4.2C659.8,340.8,657.9,342.7,655.5,342.7L655.5,342.7z
		 M669.4,338.6L669.4,338.6c0-2.3,1.9-4.2,4.2-4.2c2.3,0,4.1,1.9,4.1,4.2c0,2.2-1.8,4.1-4.1,4.1
		C671.3,342.7,669.4,340.8,669.4,338.6L669.4,338.6z M677.2,347.8L677.2,347.8l1.5,3.3l-24,10.7l-1.5-3.4L677.2,347.8z"/>
	<path fill="#727270" d="M27.2,424.1c-15,0-27.3,12.2-27.3,27.2c0,15,12.2,27.2,27.3,27.2c15,0,27.2-12.2,27.2-27.2
		C54.4,436.3,42.1,424.1,27.2,424.1L27.2,424.1z M27.2,476.3L27.2,476.3c-13.8,0-25.1-11.2-25.1-25.1c0-13.8,11.2-25.1,25.1-25.1
		s25,11.2,25,25.1C52.1,465.2,41,476.3,27.2,476.3L27.2,476.3z M14.4,444.6L14.4,444.6c0-2.3,1.9-4.2,4.2-4.2c2.3,0,4.2,1.9,4.2,4.2
		c0,2.3-1.9,4.2-4.2,4.2C16.3,448.8,14.4,446.9,14.4,444.6L14.4,444.6z M32.4,444.6L32.4,444.6c0-2.3,1.9-4.2,4.2-4.2
		c2.3,0,4.2,1.9,4.2,4.2c0,2.3-1.9,4.2-4.2,4.2C34.3,448.8,32.4,446.9,32.4,444.6L32.4,444.6z M12.5,455.2L12.5,455.2
		c1.3,3.2,4.9,5.9,9.3,6.9c-0.7-0.2-1.2-0.2-1.9-0.5c0,0.3,0,0.7,0,1.2c0,5.7,3.1,10.3,6.9,10.3c3.9,0,6.9-4.6,6.9-10.3
		c0-0.4,0-0.8,0-1.2c-0.6,0.2-1.2,0.3-1.7,0.5c4.5-1.2,7.9-3.7,9.3-6.9c-3.1,3.2-8.4,5.4-14.4,5.4C20.8,460.6,15.6,458.5,12.5,455.2
		L12.5,455.2z M22.3,462.3L22.3,462.3c0.5,0.1,0.9,0.2,1.4,0.2C23.2,462.5,22.8,462.4,22.3,462.3L22.3,462.3z M24.8,462.7
		L24.8,462.7c0.7,0.1,1.3,0.2,2.1,0.2c0.7,0,1.5-0.1,2.2-0.2c-0.7,0.1-1.4,0.2-2.2,0.2C26.1,462.8,25.4,462.8,24.8,462.7L24.8,462.7
		z M29.8,462.6L29.8,462.6c0.4,0,0.9-0.1,1.3-0.2C30.7,462.5,30.2,462.6,29.8,462.6L29.8,462.6z"/>
	<path fill="#727270" d="M133.3,424.1c-15,0-27.1,12.2-27.1,27.2c0,15,12.2,27.2,27.1,27.2c15,0,27.2-12.2,27.2-27.2
		C160.5,436.2,148.3,424.1,133.3,424.1L133.3,424.1z M133.3,476.3L133.3,476.3c-13.8,0-25-11.2-25-25.1c0-13.8,11.2-25.1,25-25.1
		c13.9,0,25.1,11.2,25.1,25.1C158.3,465.2,147.1,476.3,133.3,476.3L133.3,476.3z M124.7,448.8L124.7,448.8c-2.4,0-4.2-1.9-4.2-4.2
		c0-2.3,1.8-4.2,4.2-4.2c2.3,0,4.1,1.9,4.1,4.2C128.9,446.9,127.1,448.8,124.7,448.8L124.7,448.8z M142.8,440.4L142.8,440.4
		c2.2,0,4.1,1.9,4.1,4.2c0,2.3-1.9,4.2-4.1,4.2c-2.4,0-4.2-1.9-4.2-4.2C138.5,442.3,140.4,440.4,142.8,440.4L142.8,440.4z
		 M146.4,453.7L146.4,453.7l1.5,3.4l-24.1,10.6l-1.5-3.3L146.4,453.7z M136.6,442.8L136.6,442.8l-0.8-1l6.8-5.6l0.7,0.9L136.6,442.8
		z M130.7,442.8L130.7,442.8l-6.8-5.7l0.8-0.9l6.8,5.6L130.7,442.8z"/>
	<path fill="#727270" d="M345.6,424.1c-15,0-27.2,12.2-27.2,27.2c0,15,12.2,27.2,27.2,27.2c15,0,27.3-12.2,27.3-27.2
		C372.9,436.2,360.6,424.1,345.6,424.1L345.6,424.1z M345.6,476.3L345.6,476.3c-13.8,0-25-11.2-25-25.1c0-13.8,11.2-25.1,25-25.1
		c13.8,0,25,11.2,25,25.1C370.6,465.2,359.4,476.3,345.6,476.3L345.6,476.3z M331.9,456.1L331.9,456.1l28.8,0.1
		c-1.8,6.2-7.5,10.7-14.4,10.7C339.5,466.9,333.7,462.3,331.9,456.1L331.9,456.1z M332.7,442.9L332.7,442.9c0-1.2,1.2-2.2,2.6-2.2
		c1.3,0,2,0.6,2.6,1.7c0.7-1.2,1.4-1.7,2.7-1.7c1.4,0,2.6,1,2.6,2.2c0,2.1-2.6,4.3-5.3,6.5C335.3,447.2,332.7,445.1,332.7,442.9
		L332.7,442.9z M349.2,442.9L349.2,442.9c0-1.2,1.2-2.2,2.6-2.2c1.4,0,2,0.6,2.7,1.7c0.6-1.2,1.2-1.7,2.6-1.7c1.5,0,2.6,1,2.6,2.2
		c0,2.1-2.6,4.3-5.2,6.5C351.8,447.2,349.2,445.1,349.2,442.9L349.2,442.9z"/>
	<path fill="#727270" d="M240.1,424.1c-15,0-27.2,12.2-27.2,27.2c0,15,12.2,27.2,27.2,27.2c15,0,27.1-12.2,27.1-27.2
		C267.2,436.2,255.1,424.1,240.1,424.1L240.1,424.1z M240.1,476.3L240.1,476.3c-13.9,0-25.1-11.2-25.1-25.1
		c0-13.8,11.2-25.1,25.1-25.1c13.8,0,25.1,11.2,25.1,25.1C265.1,465.2,253.9,476.3,240.1,476.3L240.1,476.3z M250.2,463.3
		L250.2,463.3c0,5.2-4.2,9.4-9.4,9.4c-5.1,0-9.3-4.2-9.3-9.4c0-5.1,4.2-9.3,9.3-9.3C245.9,453.9,250.2,458.1,250.2,463.3
		L250.2,463.3z M254,438.2L254,438.2l2,3.5l-10.4,6.4l-2-3.5L254,438.2z M235.1,448L235.1,448l-10.4-6.4l2.1-3.5l10.4,6.4L235.1,448
		z"/>
	<path fill="#727270" d="M451.8,424.1c-15,0-27.2,12.2-27.2,27.2c0,15,12.2,27.2,27.2,27.2c15,0,27.2-12.2,27.2-27.2
		C479,436.2,466.9,424.1,451.8,424.1L451.8,424.1z M451.8,476.3L451.8,476.3c-13.8,0-25.1-11.2-25.1-25.1
		c0-13.8,11.2-25.1,25.1-25.1c13.9,0,25.1,11.2,25.1,25.1C476.9,465.2,465.7,476.3,451.8,476.3L451.8,476.3z M439,444.6L439,444.6
		c0-2.3,1.9-4.2,4.2-4.2c2.3,0,4.2,1.9,4.2,4.2c0,2.3-1.9,4.2-4.2,4.2C440.9,448.8,439,446.9,439,444.6L439,444.6z M457,444.6
		L457,444.6c0-2.3,1.9-4.2,4.2-4.2c2.3,0,4.2,1.9,4.2,4.2c0,2.3-1.9,4.2-4.2,4.2C458.9,448.8,457,446.9,457,444.6L457,444.6z
		 M466.5,466.8L466.5,466.8c-3.1-4.5-8.4-7.5-14.4-7.5c-6,0-11.3,3-14.4,7.6c1.8-6.3,7.5-10.8,14.4-10.8
		C458.8,456,464.6,460.6,466.5,466.8L466.5,466.8z M461.4,450.7L461.4,450.7c0.7,0,1.3,2.2,1.3,2.9c0,0.7-0.5,1.3-1.2,1.3
		c-0.7,0-1.3-0.6-1.3-1.3C460.2,452.9,460.8,450.7,461.4,450.7L461.4,450.7z"/>
	<path fill="#727270" d="M558,424.1c-15,0-27.2,12.2-27.2,27.1c0,15.1,12.2,27.3,27.2,27.3c15,0,27.2-12.2,27.2-27.3
		C585.2,436.2,572.9,424.1,558,424.1L558,424.1z M558,476.3L558,476.3c-13.8,0-25.1-11.2-25.1-25.1c0-13.7,11.2-25,25.1-25
		c13.8,0,25,11.2,25,25C583,465.2,571.8,476.3,558,476.3L558,476.3z M563.1,446.6L563.1,446.6l-1.8-1.7l5-5.1h0.1l5.1,5.1l-1.8,1.7
		l-3.4-3.3L563.1,446.6z M547.6,446.6L547.6,446.6l-1.8-1.7l5-5.1h0.1l5.1,5.1l-1.8,1.7l-3.3-3.3L547.6,446.6z M572.9,455.3
		L572.9,455.3c-1.8,6.3-7.5,10.8-14.4,10.8c-6.7,0-12.5-4.6-14.4-10.8c3.2,4.5,8.4,7.6,14.4,7.6
		C564.5,462.9,569.9,459.9,572.9,455.3L572.9,455.3z"/>
	<path fill="#727270" d="M27.1,530.1c-15,0-27.1,12.2-27.1,27.3c0,15,12.2,27.1,27.1,27.1c15,0,27.2-12.2,27.2-27.1
		C54.3,542.2,42.1,530.1,27.1,530.1L27.1,530.1z M27.1,582.3L27.1,582.3c-13.8,0-25-11.2-25-25c0-13.9,11.2-25.1,25-25.1
		c13.9,0,25.1,11.2,25.1,25.1C52.1,571.2,41,582.3,27.1,582.3L27.1,582.3z M15.5,564.8L15.5,564.8h23.2v3.2H15.5V564.8z M20,551.5
		L20,551.5l-5.4-1.7l0.7-2.1l4.8,1.5l5-1.2l0.4,2.2L20,551.5z M39.3,548L39.3,548l0.4,2.2l-5.5,1.2l-5.5-1.7l0.7-2.1l4.8,1.5
		L39.3,548z"/>
	<path fill="#727270" d="M133.3,530.1c-15,0-27.3,12.2-27.3,27.2c0,15,12.2,27.2,27.3,27.2c15,0,27.2-12.2,27.2-27.2
		C160.5,542.3,148.4,530.1,133.3,530.1L133.3,530.1z M133.3,582.3L133.3,582.3c-13.9,0-25.1-11.2-25.1-25.1
		c0-13.8,11.2-25.1,25.1-25.1c13.8,0,25.1,11.2,25.1,25.1C158.4,571.2,147.1,582.3,133.3,582.3L133.3,582.3z M120.5,550.6
		L120.5,550.6c0-2.3,1.9-4.2,4.2-4.2c2.3,0,4.1,1.9,4.1,4.2c0,2.3-1.8,4.1-4.1,4.1C122.4,554.7,120.5,552.9,120.5,550.6L120.5,550.6
		z M138.5,550.6L138.5,550.6c0-2.3,1.8-4.2,4.2-4.2c2.3,0,4.1,1.9,4.1,4.2c0,2.3-1.8,4.1-4.1,4.1
		C140.4,554.7,138.5,552.9,138.5,550.6L138.5,550.6z M118.5,561.2L118.5,561.2c1.2,2.7,4,5,7.5,6.4c0,0.4-0.1,0.8-0.1,1.2
		c0,5.7,3.1,10.3,6.9,10.3c3.9,0,7-4.5,7-10.3c0-0.4,0-0.8-0.1-1.2c-0.1,0.1-0.2,0.1-0.2,0.1c3.7-1.2,6.5-3.6,7.7-6.4
		c-3.1,3.2-8.3,5.3-14.4,5.3C127.1,566.5,121.7,564.5,118.5,561.2L118.5,561.2z M129.4,568.5L129.4,568.5
		C129.4,568.5,129.4,568.5,129.4,568.5S129.4,568.5,129.4,568.5L129.4,568.5z M130.9,568.7L130.9,568.7c0.1,0.1,0.2,0.1,0.4,0.1
		C131.2,568.8,131,568.8,130.9,568.7L130.9,568.7z M134.6,568.8L134.6,568.8c0.2,0,0.3,0,0.4-0.1
		C134.9,568.8,134.7,568.8,134.6,568.8L134.6,568.8z M136.5,568.5L136.5,568.5c0.1,0,0.1,0,0.2,0
		C136.6,568.5,136.6,568.5,136.5,568.5L136.5,568.5z M138.1,568.2L138.1,568.2c0.2-0.1,0.2-0.1,0.4-0.1
		C138.4,568.1,138.3,568.1,138.1,568.2L138.1,568.2z"/>
	<path fill="#727270" d="M239.3,0c-15,0-27.2,12.2-27.2,27.2c0,15,12.2,27.2,27.2,27.2c15,0,27.2-12.2,27.2-27.2
		C266.5,12.2,254.4,0,239.3,0L239.3,0z M239.3,52.3L239.3,52.3c-13.8,0-25.1-11.2-25.1-25.1c0-13.8,11.2-25.1,25.1-25.1
		c13.9,0,25.1,11.2,25.1,25.1C264.5,41.1,253.2,52.3,239.3,52.3L239.3,52.3z M226.6,20.5L226.6,20.5c0-2.3,1.8-4.2,4.1-4.2
		c2.4,0,4.2,1.9,4.2,4.2c0,2.3-1.8,4.1-4.2,4.1C228.4,24.6,226.6,22.8,226.6,20.5L226.6,20.5z M244.5,20.5L244.5,20.5
		c0-2.3,1.9-4.2,4.2-4.2c2.3,0,4.2,1.9,4.2,4.2c0,2.3-1.9,4.1-4.2,4.1C246.4,24.6,244.5,22.8,244.5,20.5L244.5,20.5z M254.4,40.5
		L254.4,40.5h-28.8c1.8-6.2,7.6-10.8,14.4-10.8C246.8,29.7,252.6,34.2,254.4,40.5L254.4,40.5z"/>
	<path fill="#727270" d="M664.1,424.1c-15,0-27.2,12.2-27.2,27.2c0,15,12.2,27.2,27.2,27.2c15,0,27.2-12.2,27.2-27.2
		C691.3,436.2,679.2,424.1,664.1,424.1L664.1,424.1z M664.1,476.3L664.1,476.3c-13.8,0-25.1-11.2-25.1-25.1
		c0-13.8,11.2-25.1,25.1-25.1c13.8,0,25.1,11.2,25.1,25.1C689.2,465.2,678,476.3,664.1,476.3L664.1,476.3z M650.8,445.1L650.8,445.1
		c0-2.3,1.9-4.2,4.2-4.2c2.3,0,4.2,1.9,4.2,4.2c0,2.2-1.9,4.1-4.2,4.1C652.7,449.3,650.8,447.4,650.8,445.1L650.8,445.1z
		 M668.9,445.1L668.9,445.1c0-2.3,1.8-4.2,4.1-4.2c2.4,0,4.2,1.9,4.2,4.2c0,2.2-1.8,4.1-4.2,4.1
		C670.7,449.3,668.9,447.4,668.9,445.1L668.9,445.1z"/>
	<path fill-rule="evenodd" clip-rule="evenodd" fill="#727270" d="M463.2,22c0,1.2-0.9,2.1-2.1,2.1c-1.2,0-2.1-0.9-2.1-2.1
		c0-1.2,0.9-2.1,2.1-2.1C462.3,19.9,463.2,20.8,463.2,22L463.2,22z M442.4,36.5h18.8v2.1h-18.8V36.5z M447.4,19.9l-6.9-4.6l1.2-1.7
		l6.9,4.7L447.4,19.9z M456.2,19.9l-1.2-1.7l6.9-4.7l1.2,1.7L456.2,19.9z M442.4,24.1c-1.2,0-2.1-0.9-2.1-2.1c0-1.2,0.9-2.1,2.1-2.1
		c1.2,0,2.1,0.9,2.1,2.1C444.5,23.2,443.6,24.1,442.4,24.1L442.4,24.1z M462.2,2.6h-20.9c-3.9,0-7.4,1.6-10,4.2
		c-2.6,2.6-4.1,6-4.1,10v20.9c0,3.9,1.6,7.4,4.1,10c2.6,2.5,6.1,4.1,10,4.1h20.9c3.9,0,7.4-1.7,10-4.1c2.6-2.6,4.2-6.1,4.2-10V16.8
		c0-4-1.7-7.4-4.2-10C469.7,4.1,466.1,2.6,462.2,2.6L462.2,2.6z M441.3,0h20.9c4.6,0,8.8,1.9,11.8,5c3.1,3,5,7.2,5,11.8v20.9
		c0,4.5-1.9,8.8-5,11.8c-3.1,3-7.2,4.9-11.8,4.9h-20.9c-4.6,0-8.8-1.9-11.8-4.9c-3.1-3.1-4.9-7.3-4.9-11.8V16.8
		c0-4.6,1.8-8.8,4.9-11.8C432.6,1.9,436.7,0,441.3,0L441.3,0z"/>
	<path fill-rule="evenodd" clip-rule="evenodd" fill="#727270" d="M563.3,16.4l6.9,4.7l1.2-1.7l-6.9-4.7L563.3,16.4z M548.6,33.5
		c0,0,2.1,6.3,9.4,6.3c7.3,0,9.3-6.3,9.3-6.3s-3.1,2.1-9.3,2.1C551.7,35.6,548.6,33.5,548.6,33.5L548.6,33.5z M568.4,2.6h-20.9
		c-3.9,0-7.4,1.6-10,4.2c-2.6,2.6-4.1,6-4.1,10v20.9c0,3.9,1.6,7.4,4.1,10c2.6,2.5,6.1,4.1,10,4.1h20.9c3.9,0,7.4-1.7,10-4.1
		c2.6-2.6,4.2-6.1,4.2-10V16.8c0-4-1.7-7.4-4.2-10C575.8,4.1,572.3,2.6,568.4,2.6L568.4,2.6z M547.5,0h20.9c4.6,0,8.8,1.9,11.8,5
		c3.1,3,5,7.2,5,11.8v20.9c0,4.5-1.9,8.8-5,11.8c-3.1,3-7.2,4.9-11.8,4.9h-20.9c-4.6,0-8.8-1.9-11.8-4.9c-3.1-3.1-4.9-7.3-4.9-11.8
		V16.8c0-4.6,1.8-8.8,4.9-11.8C538.7,1.9,542.9,0,547.5,0L547.5,0z M552.6,16.4l-6.9,4.7l-1.2-1.7l6.9-4.7L552.6,16.4z"/>
	<path fill-rule="evenodd" clip-rule="evenodd" fill="#727270" d="M677.5,17.4l-2.1,1.4l2.1,1.5l-1,1.7l-3-1.9l-2.9,1.9l-1.1-1.7
		l2.1-1.5l-2.1-1.4l1.1-1.7l2.9,1.9l3-1.9L677.5,17.4z M654.7,20.1l-2.9,1.9l-1.1-1.7l2.1-1.5l-2.1-1.4l1.1-1.7l2.9,1.9l3-1.9l1,1.7
		l-2.1,1.4l2.1,1.5l-1,1.7L654.7,20.1z M664.1,40.8c-4,0-7.3-1.5-7.3-3.1c0-1.7,3.3-3.1,7.3-3.1c4,0,7.3,1.5,7.3,3.1
		C671.4,39.3,668.1,40.8,664.1,40.8L664.1,40.8z M664.1,32.4c-5.2,0-9.4,2.3-9.4,5.2c0,2.9,4.2,5.2,9.4,5.2c5.2,0,9.3-2.3,9.3-5.2
		C673.5,34.7,669.4,32.4,664.1,32.4L664.1,32.4z M674.6,2.6h-20.9c-3.9,0-7.4,1.6-10,4.2c-2.6,2.6-4.1,6-4.1,10v20.9
		c0,3.9,1.6,7.4,4.1,10c2.6,2.5,6.1,4.1,10,4.1h20.9c3.9,0,7.4-1.7,10.1-4.1c2.5-2.6,4.1-6.1,4.1-10V16.8c0-4-1.7-7.4-4.1-10
		C682,4.1,678.4,2.6,674.6,2.6L674.6,2.6z M653.6,0h20.9c4.6,0,8.8,1.9,11.8,5c3.1,3,5,7.2,5,11.8v20.9c0,4.5-1.9,8.8-5,11.8
		c-3.1,3-7.2,4.9-11.8,4.9h-20.9c-4.6,0-8.8-1.9-11.8-4.9c-3.1-3.1-4.9-7.3-4.9-11.8V16.8c0-4.6,1.8-8.8,4.9-11.8
		C644.9,1.9,649,0,653.6,0L653.6,0z"/>
	<path fill-rule="evenodd" clip-rule="evenodd" fill="#727270" d="M38.6,128c0,1.2-0.9,2.1-2.1,2.1c-1.2,0-2.1-1-2.1-2.1
		c0-1.2,0.9-2.1,2.1-2.1C37.7,125.9,38.6,126.8,38.6,128L38.6,128z M27.1,146.8c-1.7,0-3.1-1.4-3.1-3.1c0-1.7,1.5-3.1,3.1-3.1
		c1.7,0,3.1,1.5,3.1,3.1C30.2,145.4,28.8,146.8,27.1,146.8L27.1,146.8z M27.1,138.4c-2.9,0-5.2,2.3-5.2,5.2c0,3,2.3,5.2,5.2,5.2
		c3,0,5.3-2.2,5.3-5.2C32.4,140.7,30.1,138.4,27.1,138.4L27.1,138.4z M13.5,119.6h8.4v2.1h-8.4V119.6z M19.8,128
		c0,1.2-0.9,2.1-2.1,2.1c-1.2,0-2.1-1-2.1-2.1c0-1.2,0.9-2.1,2.1-2.1C18.9,125.9,19.8,126.8,19.8,128L19.8,128z M32.4,119.6h8.3v2.1
		h-8.3V119.6z M37.6,108.6H16.7c-3.9,0-7.4,1.6-10,4.1c-2.6,2.6-4.2,6.1-4.2,10v20.9c0,3.9,1.7,7.4,4.2,10c2.6,2.6,6.1,4.1,10,4.1
		h20.9c3.9,0,7.4-1.6,10-4.1c2.6-2.6,4.1-6.1,4.1-10v-20.9c0-3.9-1.6-7.4-4.1-10C45,110.2,41.5,108.6,37.6,108.6L37.6,108.6z
		 M16.7,106h20.9c4.6,0,8.8,1.9,11.8,5c3.1,3,4.9,7.2,4.9,11.8v20.9c0,4.5-1.8,8.8-4.9,11.8c-3.1,3-7.2,4.9-11.8,4.9H16.7
		c-4.6,0-8.8-1.9-11.8-4.9c-3.1-3.1-4.9-7.3-4.9-11.8v-20.9c0-4.6,1.8-8.8,4.9-11.8C7.8,107.9,12,106,16.7,106L16.7,106z"/>
	<path fill-rule="evenodd" clip-rule="evenodd" fill="#727270" d="M128,125.9h-8.4v2.1h8.4V125.9z M138.5,128h8.3v-2.1h-8.3V128z
		 M133.3,142.6c6.2,0,9.3-2.2,9.3-2.2s-2.1,6.3-9.3,6.3c-7.4,0-9.4-6.3-9.4-6.3S127.1,142.6,133.3,142.6L133.3,142.6z M143.8,108.6
		h-20.9c-3.9,0-7.4,1.6-10,4.1c-2.6,2.6-4.1,6.1-4.1,10v20.9c0,3.9,1.6,7.4,4.1,10c2.6,2.6,6.1,4.1,10,4.1h20.9
		c3.9,0,7.4-1.6,10-4.1c2.6-2.6,4.2-6.1,4.2-10v-20.9c0-3.9-1.7-7.4-4.2-10C151.2,110.2,147.6,108.6,143.8,108.6L143.8,108.6z
		 M122.8,106h20.9c4.6,0,8.8,1.9,11.8,5c3.1,3,4.9,7.2,4.9,11.8v20.9c0,4.5-1.8,8.8-4.9,11.8c-3.1,3.1-7.2,4.9-11.8,4.9h-20.9
		c-4.6,0-8.8-1.8-11.8-4.9c-3.1-3.1-4.9-7.3-4.9-11.8v-20.9c0-4.6,1.8-8.8,4.9-11.8C114,107.9,118.2,106,122.8,106L122.8,106z"/>
	<path fill-rule="evenodd" clip-rule="evenodd" fill="#727270" d="M244.5,128h8.4v-2.1h-8.4V128z M234.1,125.9h-8.4v2.1h8.4V125.9z
		 M248.8,146.8c0,0-3.1-2.1-9.4-2.1s-9.3,2.1-9.3,2.1s2.1-6.3,9.3-6.3C246.6,140.5,248.8,146.8,248.8,146.8L248.8,146.8z
		 M249.8,108.6h-20.9c-3.8,0-7.4,1.6-10,4.1c-2.5,2.6-4.1,6.1-4.1,10v20.9c0,3.9,1.7,7.4,4.1,10c2.6,2.6,6.2,4.1,10,4.1h20.9
		c4,0,7.4-1.6,10.1-4.1c2.6-2.6,4.1-6.1,4.1-10v-20.9c0-3.9-1.6-7.4-4.1-10C257.2,110.2,253.7,108.6,249.8,108.6L249.8,108.6z
		 M228.8,106h20.9c4.6,0,8.8,1.9,11.8,5c3.1,3,5,7.2,5,11.8v20.9c0,4.5-1.8,8.8-5,11.8c-3,3-7.2,4.9-11.8,4.9h-20.9
		c-4.5,0-8.8-1.9-11.8-4.9c-3-3.1-4.9-7.3-4.9-11.8v-20.9c0-4.6,1.9-8.8,4.9-11.8C220.1,107.9,224.3,106,228.8,106L228.8,106z"/>
	<path fill-rule="evenodd" clip-rule="evenodd" fill="#727270" d="M351,232.3l1.2,1.7l6.9-4.6l-1.2-1.7L351,232.3z M334.2,250.7v2.1
		c0,0,4.1-4.1,11.5-4.1c7.3,0,11.4,4.1,11.4,4.1v-2.1c0,0-4.1-4.1-11.4-4.1C338.3,246.6,334.2,250.7,334.2,250.7L334.2,250.7z
		 M339.1,234.1l-6.9-4.6l1.2-1.7l6.9,4.6L339.1,234.1z M356.1,214.6h-20.9c-3.9,0-7.4,1.6-10,4.1s-4.1,6.1-4.1,10v20.9
		c0,3.9,1.6,7.4,4.1,10c2.6,2.6,6.1,4.1,10,4.1h20.9c3.9,0,7.4-1.6,10-4.1c2.6-2.6,4.2-6.1,4.2-10v-20.9c0-3.9-1.7-7.4-4.2-10
		C363.5,216.2,360,214.6,356.1,214.6L356.1,214.6z M335.2,212h20.9c4.6,0,8.8,1.9,11.8,5c3.1,3.1,5,7.2,5,11.8v20.9
		c0,4.6-1.9,8.8-5,11.8c-3.1,3.1-7.2,5-11.8,5h-20.9c-4.6,0-8.8-1.9-11.8-5c-3.1-3.1-4.9-7.2-4.9-11.8v-20.9c0-4.6,1.8-8.8,4.9-11.8
		C326.4,213.9,330.5,212,335.2,212L335.2,212z"/>
	<path fill-rule="evenodd" clip-rule="evenodd" fill="#727270" d="M464.5,246.6h-25.6c0,0,2.7,8.4,13,8.4
		C462,254.9,464.5,246.6,464.5,246.6L464.5,246.6z M436.1,244.4h31.3c0,0-2.1,12.6-15.6,12.6C438.2,257,436.1,244.4,436.1,244.4
		L436.1,244.4z M465.4,229.9H457v2.1h8.3V229.9z M446.6,231.9h-8.4v-2.1h8.4V231.9z M462.2,214.6h-20.9c-3.9,0-7.4,1.6-10,4.1
		c-2.6,2.6-4.1,6.1-4.1,10v20.9c0,3.9,1.6,7.4,4.1,10c2.6,2.6,6.1,4.1,10,4.1h20.9c3.9,0,7.4-1.6,10-4.1c2.6-2.6,4.2-6.1,4.2-10
		v-20.9c0-3.9-1.7-7.4-4.2-10C469.7,216.2,466.1,214.6,462.2,214.6L462.2,214.6z M441.3,212h20.9c4.6,0,8.8,1.9,11.8,5
		c3.1,3.1,5,7.2,5,11.8v20.9c0,4.6-1.9,8.8-5,11.8c-3.1,3.1-7.2,5-11.8,5h-20.9c-4.6,0-8.8-1.9-11.8-5c-3.1-3.1-4.9-7.2-4.9-11.8
		v-20.9c0-4.6,1.8-8.8,4.9-11.8C432.6,213.9,436.7,212,441.3,212L441.3,212z"/>
	<path fill-rule="evenodd" clip-rule="evenodd" fill="#727270" d="M571.5,248.6c0,3-2.3,5.2-5.3,5.2h-16.6c-3,0-5.2-2.2-5.2-5.2
		c0-2.9,2.2-5.1,5.2-5.1h16.6C569.2,243.5,571.5,245.7,571.5,248.6L571.5,248.6z M548.6,235.1c1.2,0,2.1-0.9,2.1-2.1
		c0-1.1-0.9-2.1-2.1-2.1c-1.2,0-2.1,1-2.1,2.1C546.5,234.1,547.4,235.1,548.6,235.1L548.6,235.1z M554.7,229.3l-6.9-4.6l-1.2,1.7
		l6.9,4.7L554.7,229.3z M569.3,226.3l-1.2-1.7l-6.9,4.6l1.2,1.7L569.3,226.3z M569.4,233c0,1.2-0.9,2.1-2.1,2.1
		c-1.2,0-2.1-0.9-2.1-2.1c0-1.1,0.9-2.1,2.1-2.1C568.5,230.9,569.4,231.9,569.4,233L569.4,233z M568.4,214.6h-20.9
		c-3.9,0-7.4,1.6-10,4.1c-2.6,2.6-4.1,6.1-4.1,10v20.9c0,3.9,1.6,7.4,4.1,10c2.6,2.6,6.1,4.1,10,4.1h20.9c3.9,0,7.4-1.6,10-4.1
		c2.6-2.6,4.1-6.1,4.1-10v-20.9c0-3.9-1.6-7.4-4.1-10C575.8,216.2,572.3,214.6,568.4,214.6L568.4,214.6z M547.5,212h20.9
		c4.6,0,8.8,1.9,11.8,5c3.1,3.1,5,7.2,5,11.8v20.9c0,4.6-1.9,8.8-5,11.8c-3.1,3.1-7.2,5-11.8,5h-20.9c-4.6,0-8.8-1.9-11.8-5
		c-3.1-3.1-4.9-7.2-4.9-11.8v-20.9c0-4.6,1.8-8.8,4.9-11.8C538.7,213.9,542.9,212,547.5,212L547.5,212z"/>
	<path fill-rule="evenodd" clip-rule="evenodd" fill="#727270" d="M673.5,231.9c-1.2,0-2.1,0.9-2.1,2.2c0,1.1,0.9,2.1,2.1,2.1
		c1.2,0,2.1-1,2.1-2.1C675.6,232.8,674.6,231.9,673.5,231.9L673.5,231.9z M664.1,246.6c-7.3,0-9.4,6.3-9.4,6.3s3.1-2.2,9.4-2.2
		c6.2,0,9.3,2.2,9.3,2.2S671.4,246.6,664.1,246.6L664.1,246.6z M675.5,227.4l-1.2-1.7l-6.9,4.6l1.2,1.7L675.5,227.4z M660.8,230.3
		l-6.9-4.6l-1.2,1.7l6.9,4.7L660.8,230.3z M654.7,236.1c-1.2,0-2.1-1-2.1-2.1c0-1.2,0.9-2.2,2.1-2.2c1.2,0,2.1,0.9,2.1,2.2
		C656.9,235.1,655.9,236.1,654.7,236.1L654.7,236.1z M674.6,214.6h-20.9c-3.9,0-7.4,1.6-10,4.1c-2.6,2.6-4.1,6.1-4.1,10v20.9
		c0,3.9,1.6,7.4,4.1,10c2.6,2.6,6.1,4.1,10,4.1h20.9c3.9,0,7.4-1.6,10-4.1c2.6-2.6,4.1-6.1,4.1-10v-20.9c0-3.9-1.6-7.4-4.1-10
		C682,216.2,678.4,214.6,674.6,214.6L674.6,214.6z M653.6,212h20.9c4.6,0,8.8,1.9,11.8,5c3.1,3.1,5,7.2,5,11.8v20.9
		c0,4.6-1.9,8.8-5,11.8c-3.1,3.1-7.2,5-11.8,5h-20.9c-4.6,0-8.8-1.9-11.8-5c-3.1-3.1-4.9-7.2-4.9-11.8v-20.9c0-4.6,1.8-8.8,4.9-11.8
		C644.9,213.9,649,212,653.6,212L653.6,212z"/>
	<path fill-rule="evenodd" clip-rule="evenodd" fill="#727270" d="M32.4,336.9h8.3v-2.1h-8.3V336.9z M21.9,334.9h-8.4v2.1h8.4V334.9
		z M27.1,351.5c6.3,0,9.4-2.1,9.4-2.1s-2.1,6.3-9.4,6.3c-7.3,0-9.3-6.3-9.3-6.3S20.9,351.5,27.1,351.5L27.1,351.5z M37.6,320.6H16.7
		c-3.9,0-7.4,1.6-10,4.1c-2.6,2.6-4.2,6.1-4.2,10v20.9c0,3.9,1.7,7.4,4.2,10c2.6,2.6,6.1,4.2,10,4.2h20.9c3.9,0,7.4-1.7,10-4.2
		c2.6-2.6,4.1-6.1,4.1-10v-20.9c0-3.9-1.6-7.4-4.1-10C45,322.2,41.5,320.6,37.6,320.6L37.6,320.6z M16.7,318.1h20.9
		c4.6,0,8.8,1.9,11.8,4.9c3,3.1,4.9,7.3,4.9,11.8v20.9c0,4.6-1.9,8.8-4.9,11.8c-3.1,3.1-7.2,5-11.8,5H16.7c-4.6,0-8.8-1.9-11.8-5
		c-3.1-3-4.9-7.2-4.9-11.8v-20.9c0-4.5,1.8-8.8,4.9-11.8C7.8,320,12,318.1,16.7,318.1L16.7,318.1z"/>
	<path fill-rule="evenodd" clip-rule="evenodd" fill="#727270" d="M142.7,335.8c-1.2,0-2.1,1-2.1,2.1c0,1.2,0.9,2.1,2.1,2.1
		c1.2,0,2.1-0.9,2.1-2.1C144.7,336.8,143.8,335.8,142.7,335.8L142.7,335.8z M126,337.9c0-1.1-0.9-2.1-2.1-2.1c-1.2,0-2.1,1-2.1,2.1
		c0,1.2,0.9,2.1,2.1,2.1C125.1,340,126,339.1,126,337.9L126,337.9z M123.9,354.6h18.8v2.1h-18.8V354.6z M143.8,320.6h-20.9
		c-3.9,0-7.4,1.6-10,4.1c-2.6,2.6-4.1,6.1-4.1,10v20.9c0,3.9,1.6,7.4,4.1,10c2.6,2.6,6.1,4.2,10,4.2h20.9c3.9,0,7.4-1.7,10-4.2
		c2.6-2.6,4.1-6.1,4.1-10v-20.9c0-3.9-1.6-7.4-4.1-10C151.2,322.2,147.6,320.6,143.8,320.6L143.8,320.6z M122.8,318.1h20.9
		c4.6,0,8.8,1.9,11.8,4.9c3,3.1,4.9,7.3,4.9,11.8v20.9c0,4.6-1.9,8.8-4.9,11.8c-3.1,3.1-7.2,5-11.8,5h-20.9c-4.6,0-8.8-1.9-11.8-5
		c-3.1-3-4.9-7.2-4.9-11.8v-20.9c0-4.5,1.8-8.8,4.9-11.8C114,320,118.2,318.1,122.8,318.1L122.8,318.1z"/>
	<path fill-rule="evenodd" clip-rule="evenodd" fill="#727270" d="M250.8,340.1c0-1.2-1-2.1-2.1-2.1c-1.2,0-2.1,0.9-2.1,2.1
		c0,1.2,0.9,2.1,2.1,2.1C249.8,342.1,250.8,341.2,250.8,340.1L250.8,340.1z M227.9,340.1c0,1.2,0.9,2.1,2.1,2.1
		c1.1,0,2.1-0.9,2.1-2.1c0-1.2-1-2.1-2.1-2.1C228.8,338,227.9,338.9,227.9,340.1L227.9,340.1z M234.1,331.7h-8.4v2.1h8.4V331.7z
		 M250.6,354.6c-0.4-1.2-1.5-2.1-2.9-2.1h-1.1v2.1H250.6z M250.6,356.8h-4v2.1h1.1C249.1,358.8,250.2,358,250.6,356.8L250.6,356.8z
		 M244.5,352.5h-4.1v2.1h4.1V352.5z M244.5,356.8h-4.1v2.1h4.1V356.8z M238.3,352.5h-4.1v2.1h4.1V352.5z M238.3,356.8h-4.1v2.1h4.1
		V356.8z M232.1,352.5H231c-1.2,0-2.5,0.8-2.9,2.1h4V352.5z M232,356.8h-3.9c0.4,1.2,1.4,2.1,2.9,2.1h1V356.8z M252.9,355.7
		c0,2.9-2.3,5.2-5.2,5.2H231c-2.9,0-5.2-2.3-5.2-5.2c0-3,2.3-5.2,5.2-5.2h16.7C250.6,350.5,252.9,352.7,252.9,355.7L252.9,355.7z
		 M244.5,331.7h8.4v2.1h-8.4V331.7z M249.8,320.6h-20.9c-3.9,0-7.4,1.6-10,4.1c-2.5,2.6-4.1,6.1-4.1,10v20.9c0,3.9,1.7,7.4,4.1,10
		c2.6,2.6,6.1,4.2,10,4.2h20.9c4,0,7.4-1.7,10-4.2c2.6-2.6,4.2-6.1,4.2-10v-20.9c0-3.9-1.6-7.4-4.2-10
		C257.2,322.2,253.7,320.6,249.8,320.6L249.8,320.6z M228.8,318.1h20.9c4.6,0,8.8,1.9,11.8,4.9c3.1,3.1,5,7.3,5,11.8v20.9
		c0,4.6-1.9,8.8-5,11.8c-3,3.1-7.2,5-11.8,5h-20.9c-4.5,0-8.8-1.9-11.8-5c-3-3-4.9-7.2-4.9-11.8v-20.9c0-4.5,1.9-8.8,4.9-11.8
		C220.1,320,224.3,318.1,228.8,318.1L228.8,318.1z"/>
	<path fill-rule="evenodd" clip-rule="evenodd" fill="#727270" d="M563.3,547.4l6.9,4.7l1.2-1.7l-6.9-4.7L563.3,547.4z M561.1,567.7
		c0-1.7-1.5-3.1-3.1-3.1c-1.7,0-3.1,1.5-3.1,3.1c0,1.7,1.5,3.1,3.1,3.1C559.6,570.8,561.1,569.4,561.1,567.7L561.1,567.7z
		 M563.2,567.7c0,3-2.3,5.2-5.2,5.2c-2.9,0-5.2-2.2-5.2-5.2c0-2.9,2.3-5.2,5.2-5.2C560.9,562.5,563.2,564.8,563.2,567.7L563.2,567.7
		z M551.5,545.7l1.2,1.7l-6.9,4.7l-1.2-1.7L551.5,545.7z M568.4,532.6h-20.9c-3.9,0-7.4,1.6-10,4.2c-2.6,2.6-4.1,6-4.1,10v20.9
		c0,3.9,1.6,7.4,4.1,10c2.6,2.6,6.1,4.1,10,4.1h20.9c3.9,0,7.4-1.6,10-4.1c2.6-2.6,4.2-6.1,4.2-10v-20.9c0-4-1.6-7.4-4.2-10
		C575.8,534.2,572.3,532.6,568.4,532.6L568.4,532.6z M547.5,530.1h20.9c4.6,0,8.8,1.9,11.8,5c3.1,3,5,7.2,5,11.8v20.9
		c0,4.5-1.9,8.8-5,11.8c-3,3-7.2,4.9-11.8,4.9h-20.9c-4.5,0-8.8-1.9-11.8-4.9c-3-3.1-4.9-7.3-4.9-11.8v-20.9c0-4.6,1.9-8.8,4.9-11.8
		C538.7,532,542.9,530.1,547.5,530.1L547.5,530.1z"/>
	<path fill-rule="evenodd" clip-rule="evenodd" fill="#727270" d="M673.5,554.1c-2.2,0-4.1-1.9-4.1-4.1c0-2.3,1.9-4.1,4.1-4.1
		c2.3,0,4.2,1.8,4.2,4.1C677.7,552.2,675.8,554.1,673.5,554.1L673.5,554.1z M673.5,543.7c-3.6,0-6.2,2.7-6.2,6.3
		c0,3.5,2.6,6.3,6.2,6.3C681.8,556.3,681.8,543.7,673.5,543.7L673.5,543.7z M675.6,550c0,1.2-1,2.1-2.1,2.1c-1.2,0-2.1-0.9-2.1-2.1
		c0-1.2,0.9-2.1,2.1-2.1C674.6,547.9,675.6,548.8,675.6,550L675.6,550z M656.9,550c0,1.2-1,2.1-2.1,2.1c-1.2,0-2.2-0.9-2.2-2.1
		c0-1.2,0.9-2.1,2.2-2.1C655.9,547.9,656.9,548.8,656.9,550L656.9,550z M654.8,554.1c-2.3,0-4.2-1.9-4.2-4.1c0-2.3,1.9-4.1,4.2-4.1
		c2.2,0,4.1,1.8,4.1,4.1C658.9,552.2,657,554.1,654.8,554.1L654.8,554.1z M661,550c0-3.6-2.7-6.3-6.2-6.3c-3.6,0-6.3,2.7-6.3,6.3
		c0,3.5,2.7,6.3,6.3,6.3C658.3,556.3,661,553.5,661,550L661,550z M664.1,570.8c-1.7,0-3.1-1.4-3.1-3.1c0-1.7,1.5-3.1,3.1-3.1
		c1.7,0,3.1,1.5,3.1,3.1C667.3,569.4,665.8,570.8,664.1,570.8L664.1,570.8z M664.1,562.5c-2.9,0-5.2,2.3-5.2,5.2
		c0,3,2.3,5.2,5.2,5.2c2.9,0,5.2-2.2,5.2-5.2C669.4,564.8,667,562.5,664.1,562.5L664.1,562.5z M674.6,532.6h-20.9
		c-3.9,0-7.4,1.6-10,4.2c-2.6,2.6-4.1,6-4.1,10v20.9c0,3.9,1.6,7.4,4.1,10c2.6,2.6,6.1,4.1,10,4.1h20.9c4,0,7.4-1.6,10-4.1
		c2.6-2.6,4.2-6.1,4.2-10v-20.9c0-4-1.6-7.4-4.2-10C682,534.2,678.5,532.6,674.6,532.6L674.6,532.6z M653.6,530.1h20.9
		c4.6,0,8.8,1.9,11.8,5c3.1,3,5,7.2,5,11.8v20.9c0,4.5-1.9,8.8-5,11.8c-3,3-7.2,4.9-11.8,4.9h-20.9c-4.5,0-8.8-1.9-11.8-4.9
		c-3-3.1-4.9-7.3-4.9-11.8v-20.9c0-4.6,1.9-8.8,4.9-11.8C644.9,532,649.1,530.1,653.6,530.1L653.6,530.1z"/>
	<path fill-rule="evenodd" clip-rule="evenodd" fill="#727270" d="M461.2,547.8c-1.2,0-2.1,1-2.1,2.1c0,1.2,0.9,2.1,2.1,2.1
		c1.2,0,2.1-0.9,2.1-2.1C463.3,548.8,462.3,547.8,461.2,547.8L461.2,547.8z M444.5,550c0-1.2-1-2.1-2.1-2.1c-1.2,0-2.1,1-2.1,2.1
		c0,1.2,0.9,2.1,2.1,2.1C443.6,552.1,444.5,551.1,444.5,550L444.5,550z M451.8,566.6c6.2,0,9.3-2.1,9.3-2.1s-2.1,6.3-9.3,6.3
		c-7.3,0-9.4-6.3-9.4-6.3S445.5,566.6,451.8,566.6L451.8,566.6z M462.2,532.6h-20.9c-3.9,0-7.4,1.6-10,4.2c-2.6,2.6-4.1,6-4.1,10
		v20.9c0,3.9,1.6,7.4,4.1,10c2.6,2.6,6.1,4.1,10,4.1h20.9c3.9,0,7.4-1.6,10-4.1c2.6-2.6,4.2-6.1,4.2-10v-20.9c0-4-1.6-7.4-4.2-10
		C469.7,534.2,466.1,532.6,462.2,532.6L462.2,532.6z M441.3,530.1h20.9c4.6,0,8.8,1.9,11.8,5c3.1,3,5,7.2,5,11.8v20.9
		c0,4.5-1.9,8.8-5,11.8c-3,3-7.2,4.9-11.8,4.9h-20.9c-4.5,0-8.8-1.9-11.8-4.9c-3-3.1-4.9-7.3-4.9-11.8v-20.9c0-4.6,1.9-8.8,4.9-11.8
		C432.6,532,436.8,530.1,441.3,530.1L441.3,530.1z"/>
	<path fill-rule="evenodd" clip-rule="evenodd" fill="#727270" d="M335.2,0h20.9c4.6,0,8.8,1.9,11.8,5c3.1,3,5,7.2,5,11.8v20.9
		c0,4.5-1.9,8.8-5,11.8c-3,3-7.2,4.9-11.8,4.9h-20.9c-4.6,0-8.8-1.9-11.8-4.9c-3.1-3.1-5-7.3-5-11.8V16.8c0-4.6,1.9-8.8,5-11.8
		C326.4,1.9,330.5,0,335.2,0L335.2,0z M356.1,2.6h-20.9c-3.9,0-7.4,1.6-10,4.2c-2.6,2.6-4.1,6-4.1,10v20.9c0,3.9,1.6,7.4,4.1,10
		c2.6,2.5,6.1,4.1,10,4.1h20.9c3.9,0,7.4-1.7,10-4.1c2.6-2.6,4.1-6.1,4.1-10V16.8c0-4-1.6-7.4-4.1-10C363.5,4.1,360,2.6,356.1,2.6
		L356.1,2.6z M345.6,34.5c7.4,0,11.5,4.2,11.5,4.2v2.1c0,0-4.1-4.2-11.5-4.2c-7.3,0-11.4,4.2-11.4,4.2v-2.1
		C334.2,38.7,338.3,34.5,345.6,34.5L345.6,34.5z M339.1,15.6l-6.9,4.7l1.2,1.7l6.9-4.7L339.1,15.6z M351,17.4l6.9,4.6l1.2-1.7
		l-6.9-4.7L351,17.4z"/>
	<path fill-rule="evenodd" clip-rule="evenodd" fill="#727270" d="M362.4,124.7c4.3,0,7.9-3.6,7.9-7.9c0-4.4-3.6-7.9-7.9-7.9
		c-4.5,0-8,3.6-8,7.9C354.3,121,357.9,124.7,362.4,124.7L362.4,124.7z"/>
	<path fill-rule="evenodd" clip-rule="evenodd" fill="#67CDFD" d="M345.7,151.6c-11.3,0-21.2-5.6-27.2-14.3
		c3.5,11.8,14.4,20.4,27.2,20.4c12.9,0,23.7-8.5,27.2-20.3C366.9,145.9,357,151.6,345.7,151.6L345.7,151.6z"/>
	<path fill-rule="evenodd" clip-rule="evenodd" fill="#727270" d="M328.3,124.7c4.4,0,7.9-3.6,7.9-7.9c0-4.4-3.6-7.9-7.9-7.9
		c-4.4,0-8,3.6-8,7.9C320.3,121,323.9,124.7,328.3,124.7L328.3,124.7z"/>
	<path fill-rule="evenodd" clip-rule="evenodd" fill="#727270" d="M255.5,225.9c3.8,0,7-3.1,7-6.9c0-3.9-3.2-7-7-7
		c-3.8,0-6.9,3.1-6.9,7C248.6,222.7,251.7,225.9,255.5,225.9L255.5,225.9z"/>
	<path fill-rule="evenodd" clip-rule="evenodd" fill="#67CDFD" d="M244.4,249L244.4,249c0.7-0.2,1.4-0.2,2.1-0.5
		C245.8,248.7,245.1,248.8,244.4,249L244.4,249z"/>
	<path fill-rule="evenodd" clip-rule="evenodd" fill="#67CDFD" d="M235.9,249L235.9,249c1.1,0.2,2.2,0.2,3.4,0.2
		c1.3,0,2.6-0.1,3.6-0.2c-1.1,0.2-2.3,0.2-3.6,0.2C238.2,249.3,237,249.2,235.9,249L235.9,249z"/>
	<path fill-rule="evenodd" clip-rule="evenodd" fill="#67CDFD" d="M231.8,248.4L231.8,248.4c0.8,0.2,1.7,0.3,2.4,0.5
		C233.5,248.7,232.6,248.5,231.8,248.4L231.8,248.4z"/>
	<path fill-rule="evenodd" clip-rule="evenodd" fill="#67CDFD" d="M215.4,236.6c2.3,5.4,8.1,9.7,15.6,11.7c-1.1-0.3-2.2-0.6-3.2-0.9
		c0,0.6,0,1.2,0,1.9c0,9.5,5.1,17.2,11.5,17.2c6.4,0,11.6-7.7,11.6-17.2c0-0.7,0-1.3,0-1.9c-1,0.3-2,0.6-3.1,0.8
		c7.4-1.9,13.1-6.2,15.4-11.6c-5.1,5.4-13.9,8.9-23.9,8.9C229.4,245.6,220.6,242,215.4,236.6L215.4,236.6z"/>
	<path fill-rule="evenodd" clip-rule="evenodd" fill="#727270" d="M225.7,225.9c3.9,0,6.9-3.1,6.9-6.9c0-3.9-3.1-7-6.9-7
		c-3.9,0-7,3.1-7,7C218.7,222.7,221.8,225.9,225.7,225.9L225.7,225.9z"/>
	<path fill-rule="evenodd" clip-rule="evenodd" fill="#727270" d="M150,230.6c4.5,0,8-3.6,8-7.9c0-4.5-3.6-8-8-8
		c-4.4,0-7.9,3.6-7.9,8C142,227,145.6,230.6,150,230.6L150,230.6z"/>
	<path fill-rule="evenodd" clip-rule="evenodd" fill="#67CDFD" d="M133.3,241.3c-11.2-0.1-21.2,10.6-27.2,2
		c3.5,11.7,14.4,20.4,27.3,20.4c12.9,0,23.7-8.6,27.2-20.4C154.6,252,144.5,241.3,133.3,241.3L133.3,241.3z"/>
	<path fill-rule="evenodd" clip-rule="evenodd" fill="#727270" d="M115.9,230.6c4.4,0,7.9-3.6,7.9-7.9c0-4.5-3.6-8-7.9-8
		c-4.3,0-7.9,3.6-7.9,8C108,227,111.6,230.6,115.9,230.6L115.9,230.6z"/>
	<polygon fill-rule="evenodd" clip-rule="evenodd" fill="#727270" points="678.9,114.3 685.1,120.6 688.5,117.2 678.9,107.6 
		669.2,117.2 672.6,120.6 	"/>
	<polygon fill-rule="evenodd" clip-rule="evenodd" fill="#727270" points="649.7,114.3 656,120.6 659.3,117.2 649.7,107.6 
		649.6,107.6 640,117.2 643.3,120.6 	"/>
	<path fill-rule="evenodd" clip-rule="evenodd" fill="#67CDFD" d="M664.1,158.9c12.8,0,23.6-8.5,27.2-20.4h-54.4
		C640.3,150.4,651.2,158.9,664.1,158.9L664.1,158.9z"/>
	<polygon fill-rule="evenodd" clip-rule="evenodd" fill="#727270" points="4.1,233.3 20.9,228.8 22.4,221.9 7.3,213.2 4.2,218.4 
		14.1,224.3 2.5,227.4 	"/>
	<polygon fill-rule="evenodd" clip-rule="evenodd" fill="#727270" points="50.7,233.3 52.3,227.4 40.7,224.3 50.5,218.4 47.4,213.2 
		32.4,221.9 33.9,228.8 	"/>
	<path fill-rule="evenodd" clip-rule="evenodd" fill="#67CDFD" d="M27.1,244.6c-12.9,0.2-23.7,8.8-27.2,20.6
		c5.9-8.7,16-14.4,27.2-14.4c11.3,0,21.3,5.5,27.3,14.3C50.8,253.3,40,244.6,27.1,244.6L27.1,244.6z"/>
	<path fill-rule="evenodd" clip-rule="evenodd" fill="#727270" d="M575,122.6c4.5,0,8.3-3.6,8.3-8.2c0-4.6-3.7-8.4-8.3-8.4
		c-4.7,0-8.4,3.8-8.4,8.4C566.7,119,570.3,122.6,575,122.6L575,122.6z"/>
	<polygon fill-rule="evenodd" clip-rule="evenodd" fill="#67CDFD" points="534.5,153.7 537.5,160.4 585.2,139.3 582.2,132.6 	"/>
	<path fill-rule="evenodd" clip-rule="evenodd" fill="#727270" d="M547.5,114.4c0-4.6-3.7-8.4-8.4-8.4s-8.3,3.8-8.3,8.4
		c0,4.5,3.7,8.2,8.3,8.2S547.5,119,547.5,114.4L547.5,114.4z"/>
	<path fill-rule="evenodd" clip-rule="evenodd" fill="#727270" d="M468,120c3.8,0,6.9-3.1,6.9-6.9c0-3.9-3.1-7-6.9-7
		c-3.9,0-7,3.1-7,7C461,116.8,464.1,120,468,120L468,120z"/>
	<path fill-rule="evenodd" clip-rule="evenodd" fill="#67CDFD" d="M460.3,142.3L460.3,142.3c0.3,0,0.5-0.1,0.7-0.2
		C460.8,142.2,460.6,142.3,460.3,142.3L460.3,142.3z"/>
	<path fill-rule="evenodd" clip-rule="evenodd" fill="#67CDFD" d="M457.6,142.9L457.6,142.9c0.1,0,0.2-0.1,0.3-0.1
		C457.8,142.8,457.7,142.9,457.6,142.9L457.6,142.9z"/>
	<path fill-rule="evenodd" clip-rule="evenodd" fill="#67CDFD" d="M454.6,143.2L454.6,143.2c0.2,0,0.4,0,0.7,0
		C455,143.2,454.8,143.2,454.6,143.2L454.6,143.2z"/>
	<path fill-rule="evenodd" clip-rule="evenodd" fill="#67CDFD" d="M448.3,143.2L448.3,143.2c0.2,0,0.5,0,0.7,0
		C448.8,143.2,448.6,143.2,448.3,143.2L448.3,143.2z"/>
	<path fill-rule="evenodd" clip-rule="evenodd" fill="#67CDFD" d="M445.8,142.8L445.8,142.8C445.8,142.8,445.9,142.8,445.8,142.8
		C445.9,142.8,445.8,142.8,445.8,142.8L445.8,142.8z"/>
	<path fill-rule="evenodd" clip-rule="evenodd" fill="#67CDFD" d="M427.8,130.6c2,4.7,6.5,8.5,12.5,10.7c-0.1,0.6-0.2,1.2-0.2,2
		c0,9.4,5.2,17,11.7,17c6.4,0,11.6-7.6,11.6-17c0-0.7,0-1.3-0.1-2c-0.1,0.1-0.3,0.1-0.4,0.1c6.2-2.1,10.8-6,12.8-10.7
		c-5.2,5.4-14,8.8-23.9,8.8C441.9,139.6,433.1,136.1,427.8,130.6L427.8,130.6z"/>
	<path fill-rule="evenodd" clip-rule="evenodd" fill="#727270" d="M438.1,120c3.9,0,6.9-3.1,6.9-6.9c0-3.9-3.1-7-6.9-7
		c-3.8,0-7,3.1-7,7C431.1,116.8,434.3,120,438.1,120L438.1,120z"/>
	<g>
		<rect x="186.4" y="-172.1" fill-rule="evenodd" clip-rule="evenodd" fill="#844099" width="318.5" height="106.1"/>
		<g>
			<path fill="#221F20" d="M226-110c0,0.2,0,0.5,0,0.7c0,0.2-0.1,0.3-0.2,0.5c0,0.2-0.1,0.2-0.2,0.2c-0.1,0.1-0.2,0.2-0.2,0.2H215
				c-0.3,0-0.6-0.2-0.8-0.3c-0.2-0.2-0.4-0.6-0.4-1.1v-18c0-0.4,0.2-0.8,0.4-1c0.2-0.2,0.5-0.3,0.8-0.3h10.3c0.1,0,0.2,0.1,0.2,0.1
				c0.1,0.1,0.2,0.2,0.2,0.3c0,0.1,0.1,0.2,0.1,0.5c0,0.2,0.1,0.5,0.1,0.7c0,0.3-0.1,0.6-0.1,0.8c0,0.2-0.1,0.3-0.1,0.5
				c-0.1,0.1-0.2,0.2-0.2,0.2c-0.1,0.1-0.2,0.1-0.2,0.1h-7.4v5h6.2c0.1,0,0.2,0.1,0.2,0.1c0.1,0.1,0.2,0.2,0.3,0.3
				c0.1,0.1,0.1,0.2,0.1,0.5c0.1,0.2,0.1,0.4,0.1,0.7c0,0.2,0,0.6-0.1,0.7c0,0.2,0,0.3-0.1,0.5c-0.1,0.1-0.2,0.2-0.3,0.2
				c-0.1,0.1-0.2,0.1-0.2,0.1h-6.2v5.9h7.4c0.1,0,0.2,0,0.2,0.1c0.1,0,0.2,0.1,0.2,0.2c0.1,0.2,0.2,0.3,0.2,0.5
				C226-110.5,226-110.3,226-110L226-110z M252.2-108.9c0,0.1,0,0.2-0.1,0.2c-0.1,0.1-0.2,0.2-0.3,0.2c-0.2,0-0.3,0.1-0.6,0.1
				c-0.2,0.1-0.6,0.1-1,0.1c-0.4,0-0.7,0-1-0.1c-0.2,0-0.5-0.1-0.7-0.1c-0.1-0.1-0.2-0.2-0.2-0.2c-0.1-0.1-0.2-0.2-0.2-0.2v-8.4
				c0-0.5,0-0.9-0.1-1.3c-0.1-0.4-0.2-0.7-0.4-1c-0.2-0.3-0.4-0.6-0.7-0.7c-0.2-0.2-0.6-0.2-1-0.2c-0.5,0-1,0.2-1.4,0.6
				c-0.5,0.3-1.1,0.9-1.7,1.6v9.5c0,0.1,0,0.2-0.1,0.2c-0.1,0.1-0.2,0.2-0.3,0.2c-0.2,0-0.3,0.1-0.6,0.1c-0.2,0.1-0.6,0.1-1,0.1
				c-0.4,0-0.7,0-1-0.1c-0.2,0-0.4-0.1-0.6-0.1c-0.2-0.1-0.3-0.2-0.3-0.2c-0.1-0.1-0.1-0.2-0.1-0.2v-8.4c0-0.5-0.1-0.9-0.2-1.3
				c-0.1-0.4-0.2-0.7-0.4-1c-0.2-0.3-0.4-0.6-0.7-0.7c-0.3-0.2-0.7-0.2-1.1-0.2c-0.5,0-0.9,0.2-1.4,0.6c-0.5,0.3-1.1,0.9-1.7,1.6
				v9.5c0,0.1,0,0.2-0.1,0.2c0,0.1-0.2,0.2-0.3,0.2c-0.2,0-0.3,0.1-0.6,0.1c-0.2,0.1-0.6,0.1-1,0.1c-0.4,0-0.7,0-1-0.1
				c-0.2,0-0.4-0.1-0.6-0.1c-0.2-0.1-0.2-0.2-0.3-0.2c-0.1-0.1-0.1-0.2-0.1-0.2v-14.3c0-0.1,0-0.2,0.1-0.2c0-0.1,0.1-0.2,0.2-0.2
				c0.2,0,0.3-0.1,0.6-0.1c0.2,0,0.5,0,0.8,0c0.3,0,0.6,0,0.8,0c0.2,0,0.4,0.1,0.5,0.1c0.2,0.1,0.2,0.2,0.2,0.2
				c0.1,0.1,0.1,0.2,0.1,0.2v1.7c0.8-0.8,1.6-1.5,2.4-1.9c0.7-0.4,1.6-0.7,2.5-0.7c0.6,0,1.1,0.1,1.6,0.2c0.4,0.1,0.8,0.2,1.2,0.5
				c0.3,0.2,0.7,0.5,0.9,0.8c0.3,0.3,0.5,0.7,0.7,1.1c0.4-0.5,0.8-0.8,1.2-1.2c0.4-0.3,0.8-0.7,1.2-0.8c0.4-0.2,0.8-0.4,1.2-0.5
				c0.4-0.1,0.8-0.2,1.2-0.2c0.9,0,1.7,0.2,2.4,0.5c0.7,0.3,1.2,0.7,1.6,1.3c0.4,0.6,0.7,1.2,0.8,1.9c0.2,0.7,0.3,1.6,0.3,2.4
				V-108.9z M270.5-116.2c0,1.2-0.2,2.3-0.5,3.3c-0.3,1-0.7,1.9-1.4,2.6c-0.7,0.7-1.5,1.3-2.5,1.7c-1,0.3-2.2,0.6-3.4,0.6
				c-1.3,0-2.4-0.2-3.4-0.6c-0.9-0.3-1.7-0.8-2.3-1.5c-0.6-0.7-1.1-1.5-1.3-2.5c-0.3-1-0.5-2.1-0.5-3.4c0-1.2,0.2-2.3,0.5-3.3
				c0.3-1,0.8-1.9,1.5-2.6c0.7-0.7,1.5-1.3,2.4-1.7c1-0.4,2.2-0.7,3.5-0.7c1.2,0,2.4,0.2,3.3,0.6c0.9,0.3,1.7,0.8,2.3,1.5
				c0.7,0.7,1.1,1.5,1.4,2.5C270.4-118.6,270.5-117.4,270.5-116.2L270.5-116.2z M266.4-116c0-0.7,0-1.4-0.2-2
				c-0.1-0.6-0.2-1.1-0.6-1.5c-0.2-0.5-0.6-0.8-1.1-1.1c-0.4-0.2-1-0.3-1.7-0.3c-0.6,0-1.2,0.1-1.6,0.3c-0.4,0.2-0.8,0.5-1.1,0.9
				c-0.3,0.4-0.6,1-0.7,1.6c-0.2,0.6-0.2,1.2-0.2,2s0.1,1.4,0.2,2c0.2,0.6,0.3,1.1,0.6,1.5c0.2,0.5,0.7,0.8,1.1,1.1
				c0.4,0.2,1,0.3,1.7,0.3c0.7,0,1.2-0.1,1.7-0.3c0.4-0.2,0.7-0.5,1.1-0.9c0.2-0.4,0.5-1,0.7-1.6C266.3-114.6,266.4-115.3,266.4-116
				L266.4-116z M287.6-123.7c0.5,0,0.7,0.1,1,0.2c0.2,0.2,0.3,0.5,0.3,0.8v13.7c0,0.1-0.1,0.2-0.1,0.2c-0.1,0.1-0.2,0.2-0.3,0.2
				c-0.2,0-0.4,0.1-0.7,0.1c-0.2,0.1-0.6,0.1-0.9,0.1c-0.4,0-0.7,0-1-0.1c-0.3,0-0.5-0.1-0.7-0.1c-0.2-0.1-0.2-0.2-0.3-0.2
				c-0.1-0.1-0.1-0.2-0.1-0.2v-11.6h-6.4v6.7c0,0.8,0.1,1.4,0.3,1.8c0.2,0.3,0.7,0.6,1.3,0.6c0.2,0,0.4-0.1,0.6-0.1
				c0.2,0,0.3-0.1,0.5-0.2c0.1,0,0.2-0.1,0.3-0.1c0.1-0.1,0.2-0.1,0.2-0.1c0,0,0.1,0,0.2,0.1c0,0,0.1,0.1,0.1,0.2
				c0.1,0.1,0.1,0.2,0.2,0.4c0,0.2,0,0.4,0,0.7c0,0.5,0,0.8-0.1,1.1c-0.1,0.2-0.2,0.4-0.2,0.5c-0.1,0.2-0.2,0.2-0.4,0.3
				c-0.2,0.1-0.4,0.2-0.7,0.2c-0.2,0.1-0.5,0.1-0.8,0.2c-0.2,0-0.6,0-0.9,0c-0.7,0-1.5-0.1-2.1-0.2c-0.6-0.2-1.1-0.5-1.4-1
				c-0.4-0.4-0.7-0.9-0.9-1.6c-0.2-0.7-0.2-1.4-0.2-2.2v-7.4h-1.7c-0.2,0-0.3-0.1-0.4-0.3c-0.2-0.2-0.2-0.7-0.2-1.2
				c0-0.3,0-0.6,0-0.8c0-0.2,0.1-0.4,0.2-0.5c0-0.2,0.1-0.2,0.2-0.2c0.1-0.1,0.2-0.1,0.2-0.1h1.7v-3.2c0-0.1,0-0.2,0.1-0.2
				c0.1-0.1,0.2-0.2,0.3-0.2c0.2-0.1,0.3-0.1,0.7-0.1c0.2-0.1,0.6-0.1,0.9-0.1c0.4,0,0.7,0,1,0.1c0.2,0,0.5,0,0.7,0.1
				c0.2,0.1,0.2,0.2,0.3,0.2c0,0.1,0.1,0.2,0.1,0.2v3.2H287.6z M289.1-128c0,0.8-0.2,1.4-0.5,1.7c-0.3,0.3-0.9,0.5-1.8,0.5
				c-0.9,0-1.5-0.2-1.8-0.4c-0.3-0.3-0.5-0.9-0.5-1.7c0-0.8,0.2-1.4,0.5-1.7c0.3-0.3,0.9-0.5,1.8-0.5c0.9,0,1.6,0.2,1.9,0.4
				C289-129.3,289.1-128.7,289.1-128L289.1-128z M303.7-111.2c0,0.3,0,0.6,0,0.7c0,0.2-0.1,0.3-0.1,0.5c0,0.1-0.1,0.2-0.1,0.2
				c-0.1,0.1-0.2,0.2-0.2,0.3c-0.2,0.2-0.3,0.2-0.7,0.5c-0.3,0.2-0.7,0.3-1.1,0.4c-0.4,0.2-0.8,0.2-1.2,0.3c-0.5,0.1-1,0.2-1.5,0.2
				c-1.1,0-2.1-0.2-2.9-0.5c-0.8-0.3-1.6-0.9-2.2-1.6c-0.6-0.7-1-1.5-1.3-2.4c-0.3-1-0.4-2.1-0.4-3.3c0-1.4,0.2-2.6,0.5-3.7
				c0.4-1,0.9-1.9,1.6-2.6c0.6-0.7,1.3-1.2,2.2-1.6c0.9-0.3,1.8-0.5,2.9-0.5c0.4,0,0.8,0.1,1.2,0.2c0.4,0.1,0.8,0.2,1.2,0.2
				c0.3,0.2,0.7,0.3,1,0.5c0.2,0.2,0.4,0.2,0.6,0.4c0.1,0.1,0.2,0.2,0.2,0.2c0,0.1,0.1,0.2,0.1,0.3c0,0.2,0.1,0.3,0.1,0.5
				c0,0.2,0,0.4,0,0.7c0,0.7,0,1.1-0.2,1.3c-0.1,0.2-0.2,0.3-0.4,0.3c-0.2,0-0.3,0-0.6-0.2c-0.2-0.2-0.4-0.3-0.7-0.5
				c-0.3-0.2-0.7-0.3-1-0.5c-0.4-0.2-0.9-0.2-1.4-0.2c-1.1,0-1.8,0.4-2.4,1.2c-0.6,0.7-0.8,2-0.8,3.5c0,0.8,0.1,1.5,0.2,2.1
				c0.2,0.6,0.4,1.1,0.7,1.5c0.2,0.4,0.6,0.7,1,0.9c0.4,0.2,0.9,0.2,1.5,0.2c0.5,0,1-0.1,1.4-0.2c0.4-0.2,0.7-0.3,1.1-0.6
				c0.2-0.2,0.5-0.3,0.7-0.5c0.2-0.2,0.3-0.2,0.5-0.2c0.1,0,0.2,0,0.2,0.1c0,0,0.1,0.2,0.2,0.2c0,0.2,0,0.3,0.1,0.6
				C303.7-111.8,303.7-111.5,303.7-111.2L303.7-111.2z M320.9-116.2c0,1.2-0.2,2.3-0.5,3.3c-0.3,1-0.8,1.9-1.5,2.6
				c-0.7,0.7-1.4,1.3-2.4,1.7c-1,0.3-2.1,0.6-3.5,0.6c-1.2,0-2.4-0.2-3.3-0.6c-0.9-0.3-1.7-0.8-2.3-1.5c-0.7-0.7-1.1-1.5-1.4-2.5
				c-0.2-1-0.4-2.1-0.4-3.4c0-1.2,0.2-2.3,0.5-3.3c0.3-1,0.7-1.9,1.4-2.6c0.7-0.7,1.5-1.3,2.5-1.7c1-0.4,2.1-0.7,3.4-0.7
				c1.3,0,2.4,0.2,3.4,0.6c0.9,0.3,1.7,0.8,2.3,1.5c0.6,0.7,1.1,1.5,1.3,2.5C320.7-118.6,320.9-117.4,320.9-116.2L320.9-116.2z
				 M316.7-116c0-0.7-0.1-1.4-0.2-2c-0.2-0.6-0.3-1.1-0.6-1.5c-0.2-0.5-0.7-0.8-1.1-1.1c-0.4-0.2-1-0.3-1.7-0.3
				c-0.7,0-1.2,0.1-1.6,0.3c-0.5,0.2-0.8,0.5-1.2,0.9c-0.2,0.4-0.5,1-0.7,1.6c-0.2,0.6-0.2,1.2-0.2,2s0,1.4,0.2,2
				c0.1,0.6,0.3,1.1,0.6,1.5c0.2,0.5,0.6,0.8,1.1,1.1c0.4,0.2,1,0.3,1.7,0.3c0.6,0,1.2-0.1,1.6-0.3c0.4-0.2,0.8-0.5,1.1-0.9
				c0.3-0.4,0.6-1,0.7-1.6C316.7-114.6,316.7-115.3,316.7-116L316.7-116z M337.7-108.9c0,0.1,0,0.2-0.1,0.2
				c-0.1,0.1-0.2,0.2-0.3,0.2c-0.2,0-0.3,0.1-0.6,0.1c-0.3,0.1-0.7,0.1-1,0.1c-0.4,0-0.7,0-1-0.1c-0.2,0-0.5-0.1-0.7-0.1
				c-0.1-0.1-0.2-0.2-0.2-0.2c-0.1-0.1-0.2-0.2-0.2-0.2v-8.1c0-0.7,0-1.2-0.1-1.7c-0.2-0.4-0.2-0.7-0.5-1c-0.2-0.3-0.4-0.6-0.7-0.7
				c-0.2-0.2-0.7-0.2-1.1-0.2c-0.5,0-1,0.2-1.5,0.6c-0.6,0.3-1.1,0.9-1.7,1.6v9.5c0,0.1,0,0.2-0.1,0.2c-0.1,0.1-0.2,0.2-0.3,0.2
				c-0.2,0-0.3,0.1-0.6,0.1c-0.3,0.1-0.7,0.1-1,0.1c-0.4,0-0.7,0-1-0.1c-0.2,0-0.5-0.1-0.6-0.1c-0.2-0.1-0.3-0.2-0.3-0.2
				c-0.1-0.1-0.2-0.2-0.2-0.2v-14.3c0-0.1,0.1-0.2,0.1-0.2c0.1-0.1,0.2-0.2,0.3-0.2c0.1,0,0.3-0.1,0.5-0.1c0.2,0,0.5,0,0.8,0
				c0.3,0,0.7,0,0.8,0c0.2,0,0.4,0.1,0.6,0.1c0.1,0.1,0.2,0.2,0.2,0.2c0.1,0.1,0.1,0.2,0.1,0.2v1.7c0.7-0.8,1.6-1.5,2.4-1.9
				c0.8-0.4,1.7-0.7,2.6-0.7c1,0,1.8,0.2,2.5,0.5c0.7,0.3,1.2,0.7,1.6,1.3c0.4,0.6,0.7,1.2,0.9,1.9c0.2,0.7,0.2,1.7,0.2,2.6V-108.9z
				 M351.6-112.9c0,0.8-0.1,1.6-0.4,2.1c-0.3,0.7-0.7,1.2-1.3,1.6c-0.5,0.4-1.2,0.7-1.9,0.9c-0.8,0.2-1.7,0.3-2.5,0.3
				c-0.6,0-1.1-0.1-1.6-0.2c-0.5-0.1-0.9-0.2-1.3-0.2c-0.3-0.2-0.7-0.2-0.9-0.4c-0.3-0.1-0.5-0.2-0.6-0.3c-0.1-0.2-0.2-0.3-0.2-0.6
				c-0.1-0.2-0.1-0.6-0.1-1.1c0-0.2,0-0.5,0-0.7c0-0.2,0.1-0.4,0.1-0.5c0.1-0.1,0.1-0.2,0.2-0.2c0.1,0,0.2,0,0.2,0
				c0.1,0,0.3,0.1,0.5,0.2c0.3,0.2,0.5,0.3,0.9,0.5c0.3,0.2,0.7,0.2,1.2,0.4c0.4,0.2,1,0.2,1.6,0.2c0.3,0,0.7-0.1,0.9-0.2
				c0.3-0.1,0.6-0.2,0.7-0.3c0.2-0.1,0.4-0.2,0.5-0.5c0.1-0.2,0.2-0.5,0.2-0.7c0-0.3-0.1-0.6-0.3-0.8c-0.2-0.2-0.4-0.4-0.7-0.6
				c-0.3-0.2-0.7-0.3-1.2-0.5c-0.3-0.2-0.8-0.3-1.2-0.5c-0.4-0.2-0.8-0.4-1.2-0.7c-0.4-0.2-0.8-0.5-1.2-0.8
				c-0.3-0.3-0.6-0.7-0.7-1.2c-0.2-0.5-0.3-1.1-0.3-1.7c0-0.7,0.2-1.3,0.4-1.8c0.3-0.6,0.7-1.1,1.2-1.5c0.5-0.4,1.2-0.7,1.8-1
				c0.7-0.2,1.6-0.3,2.5-0.3c0.4,0,0.9,0.1,1.3,0.2c0.4,0,0.7,0.1,1.2,0.2c0.3,0.2,0.6,0.2,0.8,0.3c0.2,0.2,0.4,0.2,0.5,0.3
				c0.1,0.1,0.2,0.2,0.3,0.2c0,0.1,0.1,0.2,0.1,0.2c0,0.1,0,0.2,0.1,0.4c0,0.2,0,0.4,0,0.7c0,0.2,0,0.5,0,0.7
				c-0.1,0.2-0.1,0.3-0.1,0.4c-0.1,0.2-0.1,0.2-0.2,0.2c-0.1,0-0.2,0.1-0.2,0.1c-0.1,0-0.2-0.1-0.4-0.2c-0.2-0.1-0.5-0.2-0.8-0.3
				c-0.2-0.1-0.7-0.2-1-0.3c-0.4-0.1-0.9-0.2-1.4-0.2c-0.3,0-0.7,0-0.9,0.1c-0.3,0.1-0.5,0.2-0.7,0.3c-0.2,0.2-0.3,0.3-0.4,0.5
				c-0.1,0.2-0.2,0.4-0.2,0.6c0,0.3,0.2,0.7,0.3,0.8c0.2,0.2,0.5,0.4,0.8,0.6c0.3,0.2,0.7,0.3,1.1,0.5c0.4,0.2,0.9,0.3,1.3,0.5
				c0.4,0.2,0.8,0.4,1.2,0.7c0.4,0.2,0.8,0.5,1.2,0.8c0.3,0.3,0.6,0.7,0.8,1.2C351.5-114.2,351.6-113.6,351.6-112.9L351.6-112.9z
				 M365.5-108.8c0,0.2,0,0.2,0,0.2c-0.1,0.1-0.2,0.2-0.2,0.2c-0.1,0.1-0.2,0.1-0.4,0.1c-0.2,0.1-0.4,0.1-0.7,0.1
				c-0.2,0-0.5,0-0.7-0.1c-0.2,0-0.3,0-0.4-0.1c-0.2,0-0.3-0.1-0.3-0.2c-0.1-0.1-0.1-0.1-0.1-0.2v-19.8c0-0.1,0-0.2,0.1-0.2
				c0.1-0.1,0.2-0.2,0.3-0.2c0.1-0.1,0.2-0.1,0.4-0.2c0.2,0,0.4,0,0.7,0c0.2,0,0.5,0,0.7,0c0.2,0.1,0.3,0.1,0.4,0.2
				c0.1,0,0.2,0.1,0.2,0.2c0,0,0,0.1,0,0.2V-108.8z M381.1-111c0,0.2,0,0.3,0,0.5c0,0.1,0,0.2,0,0.3c-0.1,0.1-0.1,0.2-0.2,0.2
				c0,0-0.1,0.2-0.2,0.2c-0.1,0.2-0.3,0.3-0.7,0.5c-0.3,0.2-0.7,0.4-1.1,0.6c-0.4,0.2-0.8,0.2-1.3,0.3c-0.4,0.1-0.9,0.2-1.4,0.2
				c-1.1,0-2-0.2-2.8-0.5c-0.7-0.3-1.4-0.8-2-1.5c-0.5-0.7-0.9-1.5-1.2-2.4c-0.2-1-0.4-2.1-0.4-3.3c0-1.4,0.2-2.6,0.5-3.6
				c0.4-1.1,0.8-1.9,1.5-2.6c0.6-0.6,1.2-1.1,2.1-1.4c0.8-0.3,1.7-0.5,2.6-0.5c0.5,0,0.9,0.1,1.3,0.2c0.5,0.1,0.9,0.2,1.2,0.3
				c0.3,0.2,0.7,0.2,1,0.5c0.2,0.2,0.5,0.3,0.6,0.4c0.2,0.2,0.2,0.2,0.2,0.3c0.1,0.1,0.1,0.2,0.2,0.2c0,0.1,0,0.2,0,0.3
				c0.1,0.2,0.1,0.3,0.1,0.5c0,0.4-0.1,0.7-0.2,0.9c-0.1,0.2-0.2,0.2-0.3,0.2c-0.2,0-0.3-0.1-0.6-0.3c-0.2-0.2-0.5-0.3-0.8-0.6
				c-0.2-0.2-0.7-0.4-1.2-0.6c-0.4-0.2-1-0.2-1.6-0.2c-1.2,0-2.2,0.5-2.9,1.5c-0.7,1-1.1,2.4-1.1,4.2c0,0.9,0.1,1.7,0.3,2.4
				c0.2,0.7,0.4,1.3,0.7,1.8c0.3,0.4,0.7,0.7,1.2,1c0.5,0.2,1.1,0.3,1.7,0.3c0.6,0,1.2-0.1,1.6-0.2c0.5-0.2,0.8-0.4,1.2-0.7
				c0.3-0.2,0.6-0.4,0.8-0.6c0.2-0.2,0.4-0.3,0.5-0.3c0.1,0,0.2,0,0.2,0.1c0,0,0.1,0.1,0.1,0.2c0.1,0.1,0.1,0.2,0.1,0.3
				C381.1-111.4,381.1-111.2,381.1-111L381.1-111z M397.7-116.1c0,1.2-0.2,2.2-0.5,3.2c-0.2,1-0.7,1.8-1.3,2.6
				c-0.7,0.7-1.4,1.2-2.3,1.7c-0.9,0.4-2,0.6-3.2,0.6c-1.2,0-2.2-0.2-3.1-0.5c-0.9-0.4-1.7-0.9-2.2-1.6c-0.6-0.7-1-1.5-1.3-2.4
				c-0.2-1-0.4-2.1-0.4-3.3c0-1.2,0.2-2.2,0.5-3.2c0.2-1,0.7-1.8,1.3-2.6c0.7-0.7,1.4-1.2,2.3-1.7c0.9-0.4,2-0.6,3.2-0.6
				c1.2,0,2.2,0.2,3.1,0.5c0.9,0.3,1.7,0.9,2.2,1.6c0.6,0.7,1,1.5,1.3,2.4C397.5-118.4,397.7-117.3,397.7-116.1L397.7-116.1z
				 M395-115.9c0-0.8-0.1-1.6-0.2-2.2c-0.2-0.7-0.3-1.3-0.7-1.8c-0.3-0.5-0.8-1-1.4-1.2c-0.6-0.3-1.2-0.5-2.1-0.5
				c-0.8,0-1.5,0.2-2.1,0.4c-0.6,0.3-1,0.7-1.4,1.2c-0.3,0.5-0.6,1.1-0.7,1.7c-0.2,0.7-0.3,1.5-0.3,2.3c0,0.7,0.1,1.5,0.2,2.2
				c0.2,0.7,0.4,1.2,0.7,1.8c0.3,0.5,0.7,0.9,1.3,1.2c0.6,0.2,1.3,0.4,2.2,0.4c0.7,0,1.4-0.2,2-0.4c0.6-0.2,1.1-0.7,1.4-1.2
				c0.3-0.5,0.7-1.1,0.8-1.8C394.9-114.3,395-115.1,395-115.9L395-115.9z M414-108.7c0,0.1,0,0.2-0.1,0.2c0,0.1-0.1,0.2-0.2,0.2
				c-0.1,0.1-0.2,0.1-0.4,0.1c-0.2,0.1-0.4,0.1-0.7,0.1c-0.2,0-0.5,0-0.7-0.1c-0.2,0-0.3,0-0.4-0.1c-0.1,0-0.2-0.1-0.2-0.2
				c-0.1,0-0.1-0.1-0.1-0.2v-8.4c0-0.8-0.1-1.5-0.2-2c-0.2-0.5-0.3-1-0.6-1.3c-0.2-0.3-0.6-0.7-1-0.8c-0.3-0.2-0.8-0.2-1.3-0.2
				c-0.7,0-1.3,0.2-2,0.7c-0.7,0.5-1.3,1.2-2.1,2.1v10.1c0,0.1,0,0.2,0,0.2c-0.1,0.1-0.2,0.2-0.2,0.2c-0.1,0.1-0.2,0.1-0.4,0.1
				c-0.2,0.1-0.3,0.1-0.7,0.1c-0.2,0-0.4,0-0.6-0.1c-0.2,0-0.3,0-0.4-0.1c-0.2,0-0.2-0.1-0.2-0.2c0,0-0.1-0.1-0.1-0.2v-14.4
				c0-0.1,0.1-0.2,0.1-0.2c0-0.1,0.1-0.1,0.2-0.2c0.1-0.1,0.2-0.1,0.4-0.1c0.2,0,0.3,0,0.6,0c0.3,0,0.4,0,0.6,0c0.2,0,0.2,0,0.3,0.1
				c0.1,0.1,0.2,0.1,0.2,0.2c0,0.1,0,0.2,0,0.2v1.9c0.8-0.9,1.7-1.6,2.5-2.1c0.7-0.4,1.6-0.6,2.4-0.6c0.9,0,1.7,0.2,2.4,0.5
				c0.7,0.3,1.2,0.7,1.6,1.2c0.4,0.6,0.7,1.2,0.9,2c0.2,0.7,0.2,1.6,0.2,2.6V-108.7z"/>
			<path fill="#221F20" d="M427.8-112.7c0,0.7-0.2,1.4-0.4,2c-0.3,0.6-0.7,1.1-1.2,1.5c-0.5,0.3-1.2,0.7-1.8,0.8
				c-0.7,0.2-1.5,0.3-2.3,0.3c-0.5,0-1,0-1.4-0.1c-0.5-0.1-0.9-0.2-1.2-0.3c-0.4-0.1-0.7-0.2-1-0.4c-0.3-0.1-0.4-0.2-0.5-0.3
				c-0.2-0.1-0.3-0.2-0.3-0.4c0-0.2,0-0.5,0-0.8c0-0.2,0-0.3,0-0.5c0-0.2,0-0.2,0.1-0.3c0-0.1,0.1-0.2,0.1-0.2
				c0.1-0.1,0.2-0.1,0.2-0.1c0.1,0,0.2,0.1,0.5,0.2c0.3,0.1,0.5,0.2,0.8,0.4c0.3,0.2,0.7,0.3,1.2,0.5c0.4,0.2,1,0.2,1.6,0.2
				c0.4,0,0.8-0.1,1.2-0.2c0.3-0.1,0.7-0.2,0.9-0.4c0.2-0.2,0.5-0.4,0.6-0.7c0.2-0.2,0.2-0.7,0.2-1c0-0.4-0.1-0.7-0.3-1.1
				c-0.2-0.2-0.5-0.5-0.8-0.7c-0.3-0.2-0.7-0.3-1.2-0.5c-0.4-0.2-0.8-0.4-1.3-0.6c-0.4-0.2-0.8-0.3-1.2-0.6
				c-0.5-0.2-0.8-0.5-1.2-0.8c-0.4-0.3-0.7-0.7-0.8-1.2c-0.2-0.4-0.3-1-0.3-1.7c0-0.5,0.1-1.1,0.3-1.6c0.2-0.5,0.5-1,1-1.4
				c0.4-0.3,1-0.7,1.7-0.9c0.6-0.2,1.4-0.3,2.2-0.3c0.4,0,0.8,0,1.2,0.1c0.4,0.1,0.7,0.2,1.1,0.2c0.3,0.1,0.6,0.2,0.7,0.3
				c0.2,0.1,0.4,0.2,0.5,0.3c0.2,0.1,0.2,0.2,0.2,0.2c0.1,0.1,0.1,0.2,0.1,0.2c0,0.1,0,0.2,0.1,0.3c0,0.1,0,0.2,0,0.4
				c0,0.2,0,0.3,0,0.4c-0.1,0.2-0.1,0.2-0.1,0.3c-0.1,0.1-0.1,0.2-0.2,0.2c-0.1,0-0.1,0-0.2,0c-0.1,0-0.2-0.1-0.4-0.2
				c-0.2-0.1-0.4-0.2-0.7-0.4c-0.2-0.1-0.6-0.2-1-0.3c-0.4-0.2-0.8-0.2-1.3-0.2c-0.5,0-0.8,0-1.2,0.2c-0.4,0.1-0.7,0.2-0.9,0.4
				c-0.2,0.2-0.3,0.4-0.5,0.7c-0.1,0.2-0.2,0.5-0.2,0.8c0,0.4,0.2,0.7,0.3,1c0.2,0.3,0.5,0.6,0.8,0.7c0.3,0.2,0.7,0.4,1.2,0.6
				c0.5,0.2,0.9,0.3,1.4,0.6c0.4,0.2,0.8,0.3,1.3,0.6c0.4,0.2,0.8,0.5,1.2,0.8c0.3,0.3,0.6,0.7,0.8,1.2
				C427.6-113.8,427.8-113.3,427.8-112.7L427.8-112.7z M450.3-114.2c0,1-0.2,1.8-0.5,2.6c-0.4,0.7-0.9,1.3-1.5,1.9
				c-0.7,0.5-1.4,0.9-2.3,1.2c-0.8,0.2-1.7,0.4-2.7,0.4c-0.7,0-1.3-0.1-1.9-0.2c-0.7-0.1-1.2-0.2-1.7-0.4c-0.4-0.2-0.8-0.4-1.2-0.6
				c-0.3-0.2-0.5-0.3-0.7-0.4c-0.1-0.2-0.2-0.3-0.3-0.5c-0.1-0.2-0.1-0.5-0.1-0.8c0-0.2,0-0.4,0-0.6c0.1-0.2,0.1-0.2,0.1-0.3
				c0.1-0.2,0.2-0.2,0.2-0.2c0.1,0,0.2,0,0.2,0c0.2,0,0.3,0.1,0.7,0.2c0.2,0.2,0.6,0.3,1,0.6c0.5,0.2,1,0.4,1.6,0.6
				c0.6,0.2,1.3,0.3,2.1,0.3c0.7,0,1.2-0.1,1.7-0.2c0.5-0.2,0.9-0.4,1.3-0.7c0.3-0.2,0.6-0.6,0.8-1.1c0.2-0.4,0.2-0.9,0.2-1.4
				c0-0.6-0.1-1.1-0.4-1.5c-0.2-0.4-0.6-0.8-1-1.2c-0.5-0.2-1-0.6-1.6-0.8c-0.5-0.2-1.1-0.5-1.7-0.8c-0.6-0.2-1.2-0.6-1.7-0.9
				c-0.6-0.2-1.1-0.7-1.5-1.2c-0.4-0.4-0.8-0.9-1.1-1.6c-0.2-0.6-0.4-1.3-0.4-2.1c0-0.8,0.2-1.7,0.5-2.3c0.3-0.7,0.7-1.2,1.3-1.7
				c0.6-0.5,1.2-0.8,2-1.1c0.7-0.2,1.6-0.3,2.5-0.3c0.5,0,0.9,0,1.4,0.1c0.4,0.1,0.9,0.2,1.3,0.3c0.4,0.2,0.7,0.2,1.1,0.4
				c0.3,0.2,0.5,0.3,0.7,0.4c0.1,0.1,0.2,0.2,0.2,0.2c0,0.1,0.1,0.2,0.1,0.2c0,0.1,0,0.2,0.1,0.3c0,0.1,0,0.2,0,0.5
				c0,0.2,0,0.3-0.1,0.5c0,0.2,0,0.2,0,0.4c-0.1,0.1-0.1,0.2-0.2,0.2c-0.1,0.1-0.2,0.1-0.2,0.1c-0.2,0-0.3-0.1-0.6-0.2
				c-0.2-0.1-0.6-0.2-0.9-0.5c-0.4-0.2-0.8-0.3-1.3-0.5c-0.5-0.2-1.1-0.2-1.7-0.2c-0.6,0-1.1,0.1-1.5,0.2c-0.4,0.2-0.8,0.4-1.1,0.7
				c-0.2,0.2-0.5,0.5-0.7,0.9c-0.1,0.3-0.2,0.7-0.2,1.1c0,0.6,0.2,1.1,0.4,1.5c0.2,0.4,0.6,0.7,1.1,1.1c0.4,0.3,0.9,0.7,1.5,0.9
				c0.6,0.2,1.2,0.5,1.7,0.8c0.6,0.2,1.2,0.6,1.7,0.9c0.6,0.2,1.1,0.7,1.5,1.2c0.4,0.4,0.8,0.9,1.1,1.5
				C450.2-115.7,450.3-115,450.3-114.2L450.3-114.2z M466.2-116.6c0,0.4-0.1,0.7-0.3,0.9c-0.2,0.2-0.4,0.2-0.7,0.2h-9.4
				c0,0.8,0.1,1.5,0.3,2.1c0.2,0.7,0.4,1.2,0.8,1.7c0.3,0.5,0.8,0.8,1.4,1.1c0.7,0.2,1.3,0.3,2.2,0.3c0.7,0,1.2,0,1.8-0.2
				c0.5-0.1,1-0.2,1.4-0.3c0.3-0.2,0.7-0.2,0.9-0.4c0.3-0.1,0.5-0.2,0.6-0.2c0.1,0,0.2,0,0.2,0.1c0,0,0.1,0.1,0.1,0.2
				c0.1,0.1,0.1,0.2,0.1,0.3c0,0.1,0,0.2,0,0.5c0,0.1,0,0.2,0,0.3c0,0.1,0,0.2,0,0.2c-0.1,0.1-0.1,0.2-0.1,0.2
				c-0.1,0-0.1,0.1-0.2,0.2c-0.1,0.1-0.3,0.2-0.5,0.2c-0.3,0.2-0.7,0.3-1.2,0.4c-0.4,0.2-1,0.2-1.6,0.3c-0.6,0.1-1.2,0.2-1.9,0.2
				c-1.2,0-2.2-0.2-3.1-0.5c-0.9-0.3-1.7-0.8-2.2-1.5c-0.6-0.7-1.1-1.4-1.4-2.4c-0.2-1-0.4-2.1-0.4-3.5c0-1.2,0.2-2.3,0.5-3.3
				c0.3-1,0.7-1.8,1.3-2.5c0.7-0.7,1.3-1.2,2.2-1.7c0.8-0.3,1.8-0.5,2.8-0.5c1.2,0,2.1,0.2,2.9,0.5c0.8,0.4,1.5,0.9,2,1.5
				c0.5,0.6,0.9,1.3,1.2,2.1c0.2,0.8,0.3,1.7,0.3,2.6V-116.6z M463.5-117.3c0-1.4-0.3-2.5-0.9-3.3c-0.7-0.8-1.7-1.2-2.9-1.2
				c-0.7,0-1.2,0.1-1.7,0.3c-0.5,0.2-0.9,0.6-1.2,1c-0.3,0.4-0.6,0.9-0.7,1.4c-0.2,0.6-0.3,1.1-0.3,1.7H463.5z M477.5-109.8
				c0,0.3,0,0.5-0.1,0.7c0,0.2-0.1,0.2-0.2,0.3c-0.1,0.2-0.2,0.2-0.4,0.2c-0.2,0.1-0.3,0.2-0.6,0.2c-0.2,0-0.4,0.1-0.7,0.1
				c-0.2,0-0.5,0.1-0.7,0.1c-0.7,0-1.4-0.2-1.9-0.3c-0.6-0.2-1-0.5-1.3-0.9c-0.3-0.4-0.6-0.9-0.7-1.5c-0.2-0.6-0.3-1.3-0.3-2.1v-8.4
				h-2c-0.2,0-0.3-0.1-0.4-0.2c-0.1-0.2-0.2-0.4-0.2-0.8c0-0.2,0-0.3,0.1-0.5c0-0.2,0.1-0.2,0.1-0.3c0.1-0.1,0.1-0.2,0.2-0.2
				c0.1,0,0.2,0,0.3,0h2v-3.5c0,0,0-0.1,0.1-0.2c0-0.1,0.1-0.2,0.2-0.2c0.2-0.1,0.2-0.1,0.4-0.1c0.2-0.1,0.4-0.1,0.7-0.1
				c0.3,0,0.5,0,0.7,0.1c0.2,0,0.3,0,0.4,0.1c0.1,0,0.2,0.1,0.2,0.2c0.1,0.1,0.1,0.2,0.1,0.2v3.5h3.7c0.1,0,0.2,0,0.2,0
				c0.1,0.1,0.2,0.2,0.2,0.2c0.1,0.1,0.1,0.2,0.2,0.3c0,0.2,0,0.3,0,0.5c0,0.4-0.1,0.7-0.2,0.8c-0.1,0.2-0.2,0.2-0.3,0.2h-3.7v8
				c0,1,0.2,1.7,0.5,2.2c0.2,0.5,0.7,0.7,1.5,0.7c0.2,0,0.5,0,0.7-0.1c0.2,0,0.4-0.1,0.5-0.1c0.2-0.1,0.3-0.2,0.4-0.2
				c0.1-0.1,0.2-0.1,0.3-0.1h0.1c0.1,0.1,0.1,0.1,0.2,0.2c0,0.1,0,0.2,0.1,0.3C477.5-110.2,477.5-110,477.5-109.8L477.5-109.8z"/>
		</g>
	</g>
</g>
<g id="Layer_1">
</g>
</svg>
