<?xml version="1.0" encoding="utf-8"?>
<!-- Generator: Adobe Illustrator 18.0.0, SVG Export Plug-In . SVG Version: 6.00 Build 0)  -->
<!DOCTYPE svg PUBLIC "-//W3C//DTD SVG 1.1//EN" "http://www.w3.org/Graphics/SVG/1.1/DTD/svg11.dtd">
<svg version="1.1" xmlns="http://www.w3.org/2000/svg" xmlns:xlink="http://www.w3.org/1999/xlink" x="0px" y="0px"
	 viewBox="0 0 54.5 54.4" enable-background="new 0 0 54.5 54.4" xml:space="preserve">
<g id="_x32_9">
	<path fill="#727270" d="M27.2,0C12.2,0,0,12.2,0,27.2c0,15,12.2,27.2,27.2,27.2c15.1,0,27.3-12.2,27.3-27.2
		C54.5,12.2,42.3,0,27.2,0L27.2,0z M27.2,52.2L27.2,52.2c-13.7,0-25-11.2-25-25c0-13.8,11.2-25.1,25-25.1
		c13.9,0,25.1,11.2,25.1,25.1C52.3,41,41.1,52.2,27.2,52.2L27.2,52.2z M14.5,20.5L14.5,20.5c0-2.3,1.9-4.2,4.2-4.2
		c2.3,0,4.2,1.9,4.2,4.2c0,2.3-1.9,4.1-4.2,4.1C16.4,24.6,14.5,22.8,14.5,20.5L14.5,20.5z M32.5,20.5L32.5,20.5
		c0-2.3,1.8-4.2,4.1-4.2c2.3,0,4.2,1.9,4.2,4.2c0,2.3-1.9,4.1-4.2,4.1C34.3,24.6,32.5,22.8,32.5,20.5L32.5,20.5z M42.2,31.3
		L42.2,31.3c-1.8,6.3-7.6,10.8-14.4,10.8c-6.8,0-12.6-4.6-14.4-10.8c3.1,4.6,8.4,7.5,14.4,7.5C33.8,38.9,39.1,36,42.2,31.3
		L42.2,31.3z"/>
</g>
<g id="Layer_1">
</g>
</svg>
